<svg width="49" height="49" viewBox="0 0 49 49" fill="none" xmlns="http://www.w3.org/2000/svg">
<g clip-path="url(#clip0_31_14)">
<path d="M48.4406 24.3014C48.4406 10.9634 37.6946 0.151367 24.4406 0.151367C11.1806 0.154367 0.43457 10.9634 0.43457 24.3044C0.43457 36.3554 9.21257 46.3454 20.6846 48.1574V31.2824H14.5946V24.3044H20.6906V18.9794C20.6906 12.9284 24.2756 9.58637 29.7566 9.58637C32.3846 9.58637 35.1296 10.0574 35.1296 10.0574V15.9974H32.1026C29.1236 15.9974 28.1936 17.8604 28.1936 19.7714V24.3014H34.8476L33.7856 31.2794H28.1906V48.1544C39.6626 46.3424 48.4406 36.3524 48.4406 24.3014Z" fill="black"/>
</g>
<defs>
<clipPath id="clip0_31_14">
<rect width="48" height="48" fill="white" transform="translate(0.440552 0.154297)"/>
</clipPath>
</defs>
</svg>
