<svg xmlns="http://www.w3.org/2000/svg" width="114.124" height="131.796" viewBox="0 0 114.124 131.796"><g transform="translate(57.061 65.891)"><g transform="translate(-50 -57.742)"><g transform="translate(0 0)" fill="#218fb8" stroke-miterlimit="10"><path d="M 50.06453323364258 119.5654754638672 L 48.29178619384766 118.5406036376953 L -1.767086148262024 89.60016632080078 L -3.530613422393799 88.58061981201172 L -3.530613422393799 86.5435791015625 L -3.530613422393799 28.82594680786133 L -3.530613422393799 26.78689193725586 L -1.76446807384491 25.76785469055176 L 48.1947135925293 -3.058108568191528 L 49.95669555664062 -4.07476282119751 L 51.71993255615234 -3.060290336608887 L 101.7353668212891 25.71600151062012 L 103.5043869018555 26.73380088806152 L 103.5052795410156 28.77472877502441 L 103.5306625366211 86.42605590820312 L 103.5315475463867 88.45763397216797 L 101.7755508422852 89.47930908203125 L 51.83442306518555 118.5357284545898 L 50.06453323364258 119.5654754638672 Z" stroke="none"/><path d="M 49.95922470092773 -3.0517578125e-05 L 2.288818359375e-05 28.82593536376953 L 2.288818359375e-05 86.54356384277344 L 50.05889129638672 115.484001159668 L 100.0000228881836 86.42759704589844 L 99.97462463378906 28.77626800537109 L 49.95922470092773 -3.0517578125e-05 M 49.95418930053711 -8.1495361328125 L 107.0340881347656 24.69133758544922 L 107.0630874633789 90.4876708984375 L 50.07015609741211 123.6468963623047 L -7.061241149902344 90.61763000488281 L -7.061241149902344 24.74783325195312 L 49.95418930053711 -8.1495361328125 Z" stroke="none" fill="#fff"/></g><g transform="translate(0 0)"><path d="M191.543,86.428l-.025-57.651L141.5,0V57.667Z" transform="translate(-91.543)" fill="#196b8a"/><path d="M49.944,0,0,28.826V86.544L49.959,57.667Z" fill="#4da5c6"/><path d="M49.959,163.332,0,192.209l50.059,28.94L100,192.093Z" transform="translate(0 -105.666)" fill="#218fb8"/></g><g transform="translate(66.906 15.632)"><path d="M196.084,57.487,189.5,53.813V44.275l17.9,10.106V99.555l-11.316-6.039Z" transform="translate(-189.501 -44.275)" fill="#fff"/></g></g></g></svg>