<svg xmlns="http://www.w3.org/2000/svg" width="113.895" height="131.531" viewBox="0 0 113.895 131.531"><g transform="translate(57.047 65.875)"><g transform="translate(-50 -57.742)"><g transform="translate(0 0)" fill="none" stroke-miterlimit="10"><path d="M99.774,28.718,49.859,0,0,28.768v57.6l49.958,28.882,49.841-29Z" stroke="none"/><path d="M 49.8587646484375 0 L 3.0517578125e-05 28.76799774169922 L 3.0517578125e-05 86.36959838867188 L 49.9582633972168 115.2518615722656 L 99.79896545410156 86.25386047363281 L 99.77362823486328 28.71842956542969 L 49.8587646484375 0 M 49.85376358032227 -8.133102416992188 L 106.8189010620117 24.64170074462891 L 106.8478317260742 90.30576324462891 L 49.96949768066406 123.3983612060547 L -7.047035217285156 90.43550109863281 L -7.047035217285156 24.69809722900391 L 49.85376358032227 -8.133102416992188 Z" stroke="none" fill="#fff"/></g><g transform="translate(0 0)"><path d="M191.828,86.428,191.8,28.776,141.787,0V57.667Z" transform="translate(-91.828)" fill="#e07654"/><path d="M49.944,0,0,28.826V86.544L49.959,57.667Z" transform="translate(0 0)" fill="#eac8a7"/><path d="M49.959,163.661,0,192.538l50.059,28.94L100,192.422Z" transform="translate(0 -105.995)" fill="#e69176"/></g><g transform="translate(59.585 16.706)"><path d="M169.231,79.028l11.539-5.011a53.712,53.712,0,0,0,5-2.359,7.368,7.368,0,0,0,2.626-2.222,5.391,5.391,0,0,0,.8-3.043,7.427,7.427,0,0,0-1.155-4.052,8.887,8.887,0,0,0-3.455-3.043,4.005,4.005,0,0,0-2.486-.568,2.38,2.38,0,0,0-1.717,1.3,7.32,7.32,0,0,0-.7,3.308l-10.585-5.659q.124-5.624,2.318-8.022a7,7,0,0,1,5.8-2.235,19.347,19.347,0,0,1,7.945,2.441,32.189,32.189,0,0,1,8.8,6.519,25.578,25.578,0,0,1,5.055,7.731,20.757,20.757,0,0,1,1.627,7.789,12.387,12.387,0,0,1-.879,4.973,8.553,8.553,0,0,1-3.02,3.514,28.807,28.807,0,0,1-6.006,3.021l-6.6,2.551,17.286,9.464v9.639l-32.2-17.825Z" transform="translate(-169.106 -47.413)" fill="#fff"/></g></g></g></svg>