<svg xmlns="http://www.w3.org/2000/svg" width="114.124" height="131.796" viewBox="0 0 114.124 131.796"><g transform="translate(57.061 65.891)"><g transform="translate(-50 -57.742)"><g transform="translate(0 0)" fill="none" stroke-miterlimit="10"><path d="M99.975,28.776,49.959,0,0,28.826V86.544l50.059,28.94L100,86.428Z" stroke="none"/><path d="M 49.9592170715332 -3.0517578125e-05 L 1.52587890625e-05 28.82593536376953 L 1.52587890625e-05 86.54357147216797 L 50.05888366699219 115.4840393066406 L 100.0000152587891 86.42760467529297 L 99.97461700439453 28.77626800537109 L 49.9592170715332 -3.0517578125e-05 M 49.95418167114258 -8.149528503417969 L 107.0340805053711 24.69133758544922 L 107.0630798339844 90.4876708984375 L 50.07014846801758 123.6469345092773 L -7.061248779296875 90.61763763427734 L -7.061248779296875 24.74784088134766 L 49.95418167114258 -8.149528503417969 Z" stroke="none" fill="#fff"/></g><g transform="translate(0 0)"><path d="M191.543,86.428l-.025-57.651L141.5,0V57.667Z" transform="translate(-91.543)" fill="#cba243"/><path d="M49.944,0,0,28.826V86.544L49.959,57.667Z" fill="#ffea92"/><path d="M49.959,163.332,0,192.209l50.059,28.94L100,192.093Z" transform="translate(0 -105.666)" fill="#edbd4e"/></g><g transform="translate(58.899 18.366)"><path d="M167.4,59.064q.216-4.31,2.439-5.954t6.151-.816a32,32,0,0,1,9.247,3.96,45.1,45.1,0,0,1,9.187,6.975,30.712,30.712,0,0,1,5.659,7.535,15.741,15.741,0,0,1,1.928,7.136q0,2.763-1.191,3.869a4.141,4.141,0,0,1-2.983,1.087,12.668,12.668,0,0,1-3.483-.521v.241a38.956,38.956,0,0,1,4.466,4.52,20.189,20.189,0,0,1,3.016,4.814,13,13,0,0,1,1.085,5.251q0,3.663-2,5.3t-5.8,1.028a28.633,28.633,0,0,1-9.182-3.7,58.637,58.637,0,0,1-9.742-6.92,31,31,0,0,1-6.759-8.314,21.4,21.4,0,0,1-2.619-9.837l12.23,7.075a7.6,7.6,0,0,0,1.6,4.829,16.434,16.434,0,0,0,4.794,3.883,8.992,8.992,0,0,0,2.974,1.2,2.1,2.1,0,0,0,1.838-.417,2.625,2.625,0,0,0,.636-1.984,6.646,6.646,0,0,0-2.049-4.714,31.153,31.153,0,0,0-6.592-4.757l-2.275-1.319V70.649l2.275,1.326a33.078,33.078,0,0,0,3.654,1.857,5.138,5.138,0,0,0,2.867.524q1.13-.215,1.131-2.024A6.83,6.83,0,0,0,188.6,68.31a11.448,11.448,0,0,0-3.647-3.222,7.6,7.6,0,0,0-3.017-1.192,1.821,1.821,0,0,0-1.635.586,3.024,3.024,0,0,0-.6,1.764Z" transform="translate(-166.822 -52.018)" fill="#fff"/></g></g></g></svg>