<svg xmlns="http://www.w3.org/2000/svg" width="114.124" height="131.796" viewBox="0 0 114.124 131.796"><g transform="translate(57.061 65.891)"><g transform="translate(-50 -57.742)"><g transform="translate(0 0)" fill="none" stroke-miterlimit="10"><path d="M99.975,28.776,49.959,0,0,28.826V86.544l50.059,28.94L100,86.428Z" stroke="none"/><path d="M 49.9592170715332 -7.62939453125e-06 L 1.52587890625e-05 28.82595825195312 L 1.52587890625e-05 86.54356384277344 L 50.05888366699219 115.4839935302734 L 100.0000152587891 86.42759704589844 L 99.97461700439453 28.77626037597656 L 49.9592170715332 -7.62939453125e-06 M 49.95418167114258 -8.14947509765625 L 107.0340805053711 24.69132995605469 L 107.0630798339844 90.48765563964844 L 50.07014846801758 123.6468963623047 L -7.061248779296875 90.61763000488281 L -7.061248779296875 24.74785614013672 L 49.95418167114258 -8.14947509765625 Z" stroke="none" fill="#fff"/></g><g transform="translate(0 0)"><path d="M191.543,86.428l-.025-57.651L141.5,0V57.667Z" transform="translate(-91.543)" fill="#196b8a"/><path d="M49.944,0,0,28.826V86.544L49.959,57.667Z" fill="#4da5c6"/><path d="M49.959,163.332,0,192.209l50.059,28.94L100,192.093Z" transform="translate(0 -105.666)" fill="#218fb8"/></g><g transform="translate(56.848 22.378)"><path d="M182.264,97.747,161.047,85.413l-.034-7.154L180.8,63.383,191.72,69.73l.123,25.791,5.4,3.138.037,7.815-5.4-3.138.04,8.477-9.616-5.59Zm.583-7.455-.074-15.631-11.465,8.923Z" transform="translate(-161.013 -63.383)" fill="#fff"/></g></g></g></svg>