<svg xmlns="http://www.w3.org/2000/svg" width="101.552" height="117.277" viewBox="0 0 101.552 117.277"><g transform="translate(50.775 58.633)"><g transform="translate(-44.492 -51.381)"><g transform="translate(0 0)" fill="none" stroke-miterlimit="10"><path d="M88.961,25.606,44.455,0,0,25.65V77.009l44.544,25.752L88.983,76.906Z" stroke="none"/><path d="M 44.45532608032227 -1.52587890625e-05 L 3.0517578125e-05 25.65028381347656 L 3.0517578125e-05 77.00930786132812 L 44.54403305053711 102.7614593505859 L 88.98326873779297 76.90610504150391 L 88.96067810058594 25.60607147216797 L 44.45532608032227 -1.52587890625e-05 M 44.45085525512695 -7.251686096191406 L 95.24241638183594 21.97116088867188 L 95.26821136474609 80.51889801025391 L 44.55406188964844 110.0250778198242 L -6.283317565917969 80.63457489013672 L -6.283317565917969 22.02145385742188 L 44.45085525512695 -7.251686096191406 Z" stroke="none" fill="#fff"/></g><g transform="translate(0 0)"><path d="M186.03,76.906l-.023-51.3L141.5,0V51.314Z" transform="translate(-97.047)" fill="#196b8a"/><path d="M44.442,0,0,25.65V77.009l44.455-25.7Z" fill="#4da5c6"/><path d="M44.455,163.332,0,189.028,44.544,214.78l44.439-25.855Z" transform="translate(0 -112.019)" fill="#218fb8"/></g></g></g></svg>