<?xml version="1.0" encoding="UTF-8"?><svg id="Layer_2" xmlns="http://www.w3.org/2000/svg" viewBox="0 0 329.13 380.09"><defs><style>.cls-1{fill:#fff;}.cls-2{fill:#218fb8;}</style></defs><g id="Layer_1-2"><g><polygon class="cls-2" points="329.05 94.71 164.43 0 164.38 0 0 94.88 0 284.84 164.76 380.09 329.13 284.46 329.05 94.71"/><path class="cls-1" d="M160.09,168.24c0-7.84,0-15.68,0-23.52,0-1.14-.02-2.3,.17-3.41,.38-2.23,1.89-3.68,4.04-3.78,2.36-.12,4.07,1.32,4.59,3.67,.31,1.37,.25,2.83,.25,4.25,0,14.54,.05,29.08-.06,43.62-.02,2.62,.71,4.53,2.63,6.38,6.57,6.33,12.96,12.84,19.42,19.29,.3,.3,.63,.57,.93,.88,3.19,3.31,3.65,5.58,1.55,7.68-2.06,2.07-4.71,1.62-7.76-1.36-3.46-3.39-6.9-6.8-10.33-10.23-4.24-4.23-8.4-8.54-12.71-12.69-2-1.93-2.81-4.05-2.77-6.83,.13-7.98,.05-15.97,.04-23.95Z"/><path class="cls-1" d="M164.43,284.11c-49.92,0-90.53-40.61-90.53-90.53h8c0,45.51,37.02,82.53,82.53,82.53,26.69,0,51.86-13.01,67.34-34.8,1.91-2.69,3.67-5.51,5.24-8.4l7.03,3.82c-1.72,3.17-3.65,6.27-5.75,9.21-16.97,23.9-44.58,38.16-73.86,38.16Z"/><path class="cls-1" d="M254.96,193.58h-8c0-45.51-37.02-82.53-82.53-82.53-29.19,0-56.5,15.67-71.27,40.89l-6.9-4.04c16.2-27.66,46.15-44.85,78.18-44.85,49.92,0,90.53,40.61,90.53,90.53Z"/><path class="cls-1" d="M73.96,182.65c-.76,0-1.52-.22-2.18-.64-1.2-.78-1.89-2.14-1.82-3.56l1.9-36.69c.07-1.43,.9-2.71,2.18-3.36,1.27-.65,2.8-.57,4,.21l30.83,19.99c1.2,.78,1.89,2.14,1.82,3.56-.07,1.43-.9,2.71-2.18,3.36l-32.73,16.7c-.57,.29-1.2,.44-1.82,.44Zm5.54-33.57l-1.19,22.86,20.39-10.4-9.6-6.23h0s-9.6-6.23-9.6-6.23Z"/><path class="cls-1" d="M254.98,246.92c-.76,0-1.52-.22-2.18-.64l-30.83-20c-1.2-.78-1.89-2.14-1.82-3.56,.07-1.43,.9-2.71,2.18-3.36l32.73-16.7c1.27-.65,2.8-.57,4,.21,1.2,.78,1.89,2.14,1.82,3.56l-1.9,36.69c-.07,1.43-.9,2.71-2.18,3.36-.57,.29-1.2,.44-1.82,.44Zm-22.84-23.58l9.6,6.23h0l9.6,6.23,1.18-22.86-20.39,10.4Z"/></g></g></svg>