<?xml version="1.0" encoding="UTF-8"?><svg id="Layer_2" xmlns="http://www.w3.org/2000/svg" viewBox="0 0 329.13 380.09"><defs><style>.cls-1{fill:#fff;}.cls-2{fill:#218fb8;}</style></defs><g id="Layer_1-2"><g><polygon class="cls-2" points="329.05 94.71 164.43 0 164.38 0 0 94.88 0 284.84 164.76 380.09 329.13 284.46 329.05 94.71"/><g><path class="cls-1" d="M249.25,219H79.89c-1.38,0-2.5-1.12-2.5-2.5V118.45c0-6.29,5.12-11.41,11.41-11.41h53.48c1.38,0,2.5,1.12,2.5,2.5s-1.12,2.5-2.5,2.5h-53.48c-3.54,0-6.41,2.88-6.41,6.41v95.55H246.75v-33.15c0-1.38,1.12-2.5,2.5-2.5s2.5,1.12,2.5,2.5v35.65c0,1.38-1.12,2.5-2.5,2.5Z"/><path class="cls-1" d="M258.16,263.57H70.97c-.75,0-1.46-.34-1.93-.92s-.67-1.34-.52-2.08l8.91-44.57c.27-1.36,1.6-2.23,2.94-1.96,1.35,.27,2.23,1.59,1.96,2.94l-8.32,41.58H255.11l-8.31-41.58c-.27-1.35,.61-2.67,1.96-2.94,1.35-.27,2.67,.61,2.94,1.96l8.91,44.57c.15,.73-.04,1.5-.52,2.08-.48,.58-1.18,.92-1.93,.92Z"/><path class="cls-1" d="M240.33,281.39H88.8c-11.21,0-20.33-9.12-20.33-20.33,0-1.38,1.12-2.5,2.5-2.5s2.5,1.12,2.5,2.5c0,8.45,6.88,15.33,15.33,15.33H240.33c8.45,0,15.33-6.88,15.33-15.33,0-1.38,1.12-2.5,2.5-2.5s2.5,1.12,2.5,2.5c0,11.21-9.12,20.33-20.33,20.33Z"/><path class="cls-1" d="M191.3,263.57c-1.12,0-2.14-.76-2.42-1.89l-3.61-14.45c-.22-.87-1-1.48-1.9-1.48h-37.61c-.9,0-1.68,.61-1.9,1.48l-3.61,14.45c-.33,1.34-1.69,2.15-3.03,1.82-1.34-.33-2.15-1.69-1.82-3.03l3.61-14.45c.78-3.1,3.55-5.27,6.75-5.27h37.61c3.2,0,5.97,2.17,6.75,5.27l3.61,14.45c.33,1.34-.48,2.7-1.82,3.03-.2,.05-.41,.08-.61,.08Z"/><path class="cls-1" d="M147.9,201.17c-1.38,0-2.5-1.12-2.5-2.5v-8.91c0-8.45-8.89-15.33-19.82-15.33h-11.16c-10.93,0-19.82,6.88-19.82,15.33v8.91c0,1.38-1.12,2.5-2.5,2.5s-2.5-1.12-2.5-2.5v-8.91c0-11.21,11.13-20.33,24.82-20.33h11.16c13.69,0,24.82,9.12,24.82,20.33v8.91c0,1.38-1.12,2.5-2.5,2.5Z"/><path class="cls-1" d="M177.93,183.34c-.32,0-.65-.06-.96-.19-.93-.39-1.54-1.3-1.54-2.31v-15.33h-6.41c-6.29,0-11.41-5.12-11.41-11.41v-53.48c0-6.29,5.12-11.41,11.41-11.41h80.22c6.29,0,11.41,5.12,11.41,11.41v53.48c0,6.29-5.12,11.41-11.41,11.41h-52.45l-17.1,17.09c-.48,.48-1.12,.73-1.77,.73Zm-8.91-89.14c-3.54,0-6.41,2.88-6.41,6.41v53.48c0,3.54,2.88,6.41,6.41,6.41h8.91c1.38,0,2.5,1.12,2.5,2.5v11.79l13.56-13.56c.47-.47,1.1-.73,1.77-.73h53.48c3.54,0,6.41-2.88,6.41-6.41v-53.48c0-3.54-2.88-6.41-6.41-6.41h-80.22Z"/><g><path class="cls-1" d="M191.31,131.86c-.3,0-.59-.03-.88-.08-.29-.06-.57-.15-.84-.26-.28-.11-.54-.25-.78-.41-.25-.17-.48-.36-.68-.56-.84-.84-1.32-2-1.32-3.18,0-.3,.03-.59,.08-.88,.06-.29,.15-.57,.26-.85,.11-.27,.25-.53,.41-.77,.17-.25,.36-.48,.57-.69,.83-.83,1.99-1.31,3.18-1.31s2.34,.48,3.18,1.31c.21,.21,.4,.44,.56,.69,.16,.24,.3,.5,.41,.77,.12,.28,.2,.56,.26,.85,.06,.29,.09,.58,.09,.88,0,1.18-.48,2.34-1.32,3.18-.84,.83-2,1.31-3.18,1.31Z"/><path class="cls-1" d="M209.13,131.86c-1.18,0-2.34-.48-3.18-1.31-.84-.84-1.32-2-1.32-3.18s.48-2.35,1.32-3.19c1.05-1.04,2.6-1.52,4.06-1.23,.29,.06,.58,.15,.85,.26,.27,.11,.53,.25,.77,.41,.25,.17,.48,.36,.69,.56,.2,.21,.39,.44,.56,.69,.16,.24,.3,.5,.41,.77,.11,.28,.2,.56,.26,.85,.05,.29,.09,.58,.09,.88s-.04,.58-.09,.87c-.06,.29-.15,.57-.26,.85-.11,.27-.25,.53-.42,.77-.16,.25-.35,.48-.56,.69-.2,.2-.43,.39-.68,.56-.24,.16-.5,.3-.77,.41-.28,.11-.56,.2-.85,.26-.29,.05-.58,.08-.88,.08Z"/><path class="cls-1" d="M226.96,131.87c-1.18,0-2.34-.48-3.18-1.32-.21-.21-.39-.44-.56-.69-.16-.24-.3-.5-.41-.77-.12-.28-.2-.56-.26-.85-.06-.29-.09-.58-.09-.88s.03-.59,.09-.88c.06-.28,.14-.56,.26-.84,.11-.27,.25-.53,.41-.77,.16-.25,.35-.48,.56-.69,.21-.2,.44-.39,.68-.56,.25-.16,.51-.3,.78-.41,.27-.11,.56-.2,.84-.26,1.47-.29,3.02,.19,4.06,1.23,.21,.21,.4,.44,.56,.69,.17,.24,.3,.5,.42,.77,.11,.28,.2,.56,.25,.84,.06,.29,.09,.59,.09,.88s-.03,.59-.09,.88c-.05,.29-.14,.57-.25,.85-.12,.27-.26,.53-.42,.77-.16,.25-.35,.48-.56,.69-.83,.84-1.99,1.32-3.18,1.32Z"/></g><path class="cls-1" d="M120,163.12c-11.41,0-20.7-9.29-20.7-20.7s9.29-20.7,20.7-20.7,20.7,9.29,20.7,20.7-9.29,20.7-20.7,20.7Zm0-36.4c-8.66,0-15.7,7.04-15.7,15.7s7.04,15.7,15.7,15.7,15.7-7.04,15.7-15.7-7.04-15.7-15.7-15.7Z"/></g></g></g></svg>