<?xml version="1.0" encoding="UTF-8"?><svg id="Layer_2" xmlns="http://www.w3.org/2000/svg" viewBox="0 0 329.13 380.09"><defs><style>.cls-1{fill:#fff;}.cls-2{fill:#218fb8;}</style></defs><g id="Layer_1-2"><g><polygon class="cls-2" points="329.05 94.71 164.43 0 164.38 0 0 94.88 0 284.84 164.76 380.09 329.13 284.46 329.05 94.71"/><g><path class="cls-1" d="M164.58,141.96c-11.27,0-20.45-9.19-20.45-20.46s9.17-20.44,20.45-20.44,20.44,9.17,20.44,20.44-9.17,20.46-20.44,20.46Zm0-35c-8.03,0-14.57,6.52-14.57,14.54s6.54,14.57,14.57,14.57,14.55-6.53,14.55-14.57-6.52-14.54-14.55-14.54Z"/><path class="cls-1" d="M191.06,225.38h-5.33v-5.88h5.33c4,0,7.26-3.25,7.26-7.25v-53c0-4-3.25-7.25-7.26-7.25h-53.02c-3.98,0-7.23,3.25-7.23,7.25v53c0,4,3.25,7.25,7.23,7.25h5.34v5.88h-5.34c-7.23,0-13.12-5.89-13.12-13.13v-53c0-7.24,5.89-13.13,13.12-13.13h53.02c7.25,0,13.14,5.89,13.14,13.13v53c0,7.24-5.89,13.13-13.14,13.13Z"/><path class="cls-1" d="M143.39,298.77c-1.63,0-2.95-1.31-2.95-2.94v-117.53c0-1.63,1.32-2.94,2.95-2.94s2.94,1.31,2.94,2.94v117.53c0,1.63-1.31,2.94-2.94,2.94Z"/><path class="cls-1" d="M185.73,298.77c-1.63,0-2.94-1.31-2.94-2.94v-117.53c0-1.63,1.31-2.94,2.94-2.94s2.94,1.31,2.94,2.94v117.53c0,1.63-1.31,2.94-2.94,2.94Z"/><path class="cls-1" d="M164.56,298.77c-1.63,0-2.94-1.31-2.94-2.94v-64.22c0-1.63,1.31-2.94,2.94-2.94s2.95,1.31,2.95,2.94v64.22c0,1.63-1.32,2.94-2.95,2.94Z"/><g><path class="cls-1" d="M106.68,122.21c-11.26,0-20.44-9.17-20.44-20.46s9.17-20.42,20.44-20.42,20.45,9.16,20.45,20.42-9.17,20.46-20.45,20.46Zm0-34.99c-8.02,0-14.54,6.52-14.54,14.53s6.52,14.57,14.54,14.57,14.56-6.53,14.56-14.57-6.53-14.53-14.56-14.53Z"/><path class="cls-1" d="M85.53,205.67h-5.33c-7.25,0-13.15-5.89-13.15-13.14v-53c0-7.25,5.89-13.16,13.15-13.16h53.01c1.63,0,2.94,1.31,2.94,2.94s-1.31,2.94-2.94,2.94h-53.01c-4,0-7.26,3.27-7.26,7.28v53c0,4,3.26,7.26,7.26,7.26h5.33c1.63,0,2.95,1.31,2.95,2.94s-1.32,2.94-2.95,2.94Z"/><path class="cls-1" d="M127.88,279.03c-1.63,0-2.95-1.31-2.95-2.94v-45.52c0-1.63,1.32-2.94,2.95-2.94s2.94,1.31,2.94,2.94v45.52c0,1.63-1.31,2.94-2.94,2.94Z"/><path class="cls-1" d="M85.53,279.03c-1.63,0-2.94-1.31-2.94-2.94v-117.55c0-1.63,1.31-2.94,2.94-2.94s2.95,1.31,2.95,2.94v117.55c0,1.63-1.32,2.94-2.95,2.94Z"/><path class="cls-1" d="M106.7,279.03c-1.63,0-2.94-1.31-2.94-2.94v-64.22c0-1.63,1.31-2.94,2.94-2.94s2.94,1.31,2.94,2.94v64.22c0,1.63-1.31,2.94-2.94,2.94Z"/></g><g><path class="cls-1" d="M222.46,122.21c-11.29,0-20.47-9.17-20.47-20.46s9.18-20.42,20.47-20.42,20.42,9.16,20.42,20.42-9.15,20.46-20.42,20.46Zm0-34.99c-8.04,0-14.58,6.52-14.58,14.53s6.54,14.57,14.58,14.57,14.53-6.53,14.53-14.57-6.52-14.53-14.53-14.53Z"/><path class="cls-1" d="M248.94,205.67h-5.34c-1.63,0-2.94-1.31-2.94-2.94s1.31-2.94,2.94-2.94h5.34c3.99,0,7.25-3.27,7.25-7.26v-53c0-4.01-3.26-7.28-7.25-7.28h-53.01c-1.63,0-2.95-1.31-2.95-2.94s1.31-2.94,2.95-2.94h53.01c7.24,0,13.13,5.91,13.13,13.16v53c0,7.25-5.89,13.14-13.13,13.14Z"/><path class="cls-1" d="M201.26,279.03c-1.63,0-2.94-1.31-2.94-2.94v-45.52c0-1.63,1.31-2.94,2.94-2.94s2.95,1.31,2.95,2.94v45.52c0,1.63-1.32,2.94-2.95,2.94Z"/><path class="cls-1" d="M243.6,279.03c-1.63,0-2.94-1.31-2.94-2.94v-117.55c0-1.63,1.31-2.94,2.94-2.94s2.95,1.31,2.95,2.94v117.55c0,1.63-1.32,2.94-2.95,2.94Z"/><path class="cls-1" d="M222.43,279.03c-1.63,0-2.94-1.31-2.94-2.94v-64.22c0-1.63,1.31-2.94,2.94-2.94s2.95,1.31,2.95,2.94v64.22c0,1.63-1.32,2.94-2.95,2.94Z"/></g></g></g></g></svg>