<svg width="134" height="160" viewBox="0 0 134 160" fill="none" xmlns="http://www.w3.org/2000/svg">
<path d="M68.2548 66.3581L66.1844 67.5585L56.0239 61.7039V48.7951L74.082 38.2959L74.1094 48.2182L88.0994 56.2987L81.2829 60.2292V73.7149L68.2639 66.3581" fill="#1D6D8B"/>
<path d="M56.0239 61.7041L66.1844 67.5583L66.1021 67.604L56.0239 61.8412V61.7041Z" fill="#1D6D8B"/>
<path d="M34.4937 57.9757L17.2334 48.0351V28.1631L29.7664 35.3736V38.351L34.4846 41.0723L34.4937 57.9757Z" fill="#E07755"/>
<path d="M56.0237 61.7045L20.6504 82.1991V66.0291L34.4936 57.9756L34.4844 41.0723L51.9469 51.1687L56.0237 48.8048V61.7045Z" fill="#70B7D2"/>
<path d="M56.0237 61.7041L66.1841 67.5583L66.1014 67.604L44.4159 80.1096V95.9322L20.6504 82.1987L56.0237 61.7041Z" fill="#218FB8"/>
<path d="M94.0447 95.8318L92.4506 94.9065L81.3284 101.375L68.2637 93.8528V66.3584L81.2826 73.7152V77.6823L94.0447 85.0482V95.8318Z" fill="#E07755"/>
<path d="M81.3284 101.374L81.2918 101.393L69.7114 94.7687L68.2637 93.9444V93.8525L69.7846 94.7229L81.3284 101.374Z" fill="#E07755"/>
<path d="M68.2643 93.8528L44.416 107.659V80.1102L68.2643 66.3584V93.8528Z" fill="#EEB49F"/>
<path d="M77.7554 103.454V114.274L66.1568 107.568L55.2453 113.917L44.416 107.659L68.2643 93.8525V93.9444L81.2919 101.393L77.7554 103.454Z" fill="#E69176"/>
<path d="M88.6121 109.667L88.5755 109.685L77.7554 103.455L88.6121 109.667Z" fill="#E69176"/>
<path d="M120.385 128.767C118.287 129.519 114.989 130.16 109.913 130.041C108.026 129.995 105.351 129.702 102.667 130.041V129.848L116.794 121.667L120.376 123.729V128.776L120.385 128.767Z" fill="#7EC5D9"/>
<path d="M102.666 129.84V130.032C102.519 130.051 102.373 130.069 102.226 130.096L102.666 129.84Z" fill="#70B7D2"/>
<path d="M90.9667 140.705C90.5544 141.503 90.1603 142.345 89.7758 143.225L88.1909 142.309L90.9758 140.696L90.9667 140.705Z" fill="#218FB8"/>
<path d="M125.177 112.634C124.389 113.981 123.07 115.713 124.288 118.846C124.288 118.846 125.14 121.823 124.893 124.224C124.893 124.233 124.893 124.251 124.893 124.26L118.617 120.669V110.243L125.186 106.45C125.186 106.707 125.305 107.055 125.708 107.486C125.708 107.486 127.302 108.942 125.177 112.625V112.634Z" fill="#1D6D8B"/>
<path d="M118.608 120.604L102.667 129.84L102.227 130.096C101.604 130.188 100.981 130.316 100.367 130.499C98.2048 131.122 96.1801 132.331 94.6958 134.603C93.514 136.235 92.213 138.268 90.9669 140.705L88.1819 142.318L87.4766 141.905V126.01L92.4786 128.887L107.174 120.403V107.778L115.044 112.304L118.608 110.252V120.614V120.604Z" fill="#70B7D2"/>
<path d="M124.892 124.224C124.892 124.224 124.892 124.251 124.892 124.26C124.783 125.296 124.452 126.212 123.765 126.725C123.765 126.725 123.005 127.824 120.394 128.759C118.296 129.51 114.998 130.152 109.922 130.032C108.035 129.987 105.359 129.694 102.675 130.032C102.528 130.051 102.382 130.069 102.235 130.096L102.675 129.84L116.803 121.658L118.617 120.614L124.892 124.233V124.224Z" fill="#218FB8"/>
<path d="M114.668 31.838L104.132 37.9212V39.9459L96.2344 35.4019V19.6895C101.219 21.4851 106.257 24.2243 110.994 28.3473C112.267 29.4559 113.495 30.6101 114.668 31.8472V31.838Z" fill="#1D6D8B"/>
<path d="M104.141 39.9356V39.9909L96.2437 35.4739V35.3916L104.141 39.9356Z" fill="#1D6D8B"/>
<path d="M96.2442 35.3913L88.7406 39.7433L74.1093 48.2178L74.0728 29.8946L78.6625 32.5606L88.9514 26.6054V17.6729C91.3422 18.1492 93.7793 18.7906 96.2346 19.6793V35.3913H96.2442Z" fill="#70B7D2"/>
<path d="M96.3814 51.5164L88.0993 56.2986L74.1094 48.2181L96.2438 35.3916L104.141 39.9356V55.9781L96.3905 51.5164" fill="#218FB8"/>
<path d="M110.399 66.5049L101.338 71.7822L96.3906 68.9328V51.5166L104.141 55.9783V62.8862L110.399 66.5049Z" fill="#E07755"/>
<path d="M96.3906 68.9326L101.338 71.782L101.301 71.8003L96.3906 68.9875V68.9326Z" fill="#E07755"/>
<path d="M96.3904 68.9328L81.2827 77.6825V60.2293L96.3812 51.5166L96.3904 68.9328Z" fill="#EEB49F"/>
<path d="M94.0361 76.0238L94.0452 85.0483L81.2827 77.6819L96.3904 68.9326V68.9875L101.301 71.8003L94.0361 76.0238Z" fill="#E69176"/>
<path d="M124.617 51.0217L104.141 62.886V37.9113L114.677 31.8281C116.014 33.2389 117.27 34.7324 118.424 36.3538C121.264 40.3666 123.463 45.1122 124.627 51.0126L124.617 51.0217Z" fill="#FFE991"/>
<path d="M125.516 60.8343C125.516 63.0053 123.766 65.5616 123.418 68.704L114.998 63.8391L110.399 66.5143L104.132 62.8956L110.115 59.4323L124.609 51.04C125.195 54.0087 125.507 57.2608 125.516 60.8526V60.8343Z" fill="#CBA244"/>
<path d="M115.044 88.1263V112.304L107.174 107.778V103.417L94.1184 95.868L94.0453 95.831L94.0361 76.0234L115.044 88.1263Z" fill="#FFE991"/>
<path d="M128.172 94.64C128.172 94.64 126.642 94.9879 127.421 98.3685L127.98 103.344C127.98 103.344 127.961 103.902 127.357 104.608C126.963 105.057 126.331 105.57 125.304 106.028C125.304 106.028 125.176 106.184 125.176 106.459L115.043 112.304V88.1258L128.547 80.3018C131.003 84.0215 133.861 88.6391 133.843 89.9123C133.843 89.9123 134.366 93.9159 128.172 94.6492V94.64Z" fill="#CBA244"/>
<path d="M115.043 88.1268V88.0445L94.0449 76.0244L115.007 63.8301L123.426 68.695C123.225 70.5364 123.49 72.5793 124.883 74.8701C124.956 74.9889 125.03 75.1083 125.112 75.2271C125.112 75.2271 126.725 77.5087 128.557 80.2936L115.043 88.1176V88.1268Z" fill="#EDBD4E"/>
<path d="M89.7757 143.225C89.501 143.848 89.2354 144.499 88.9789 145.167C88.8413 145.534 88.7042 145.891 88.5757 146.258C86.6425 151.718 86.0838 156.574 85.9554 160L77.7373 156.977V150.096L86.4779 145.048L87.4671 144.471V141.896L88.1725 142.309L89.7574 143.225H89.7757Z" fill="#1D6D8B"/>
<path d="M77.7461 150.096V156.976L70.4629 154.292L77.7461 150.096Z" fill="#70B7D2"/>
<path d="M92.4786 111.938V128.878L87.4761 126.001V119.89L77.7554 114.274V103.454L92.4786 111.938Z" fill="#E07755"/>
<path d="M92.4786 111.874V111.938L88.5755 109.684L77.7554 103.454L88.6121 109.666L92.4786 111.874Z" fill="#E07755"/>
<path d="M107.174 103.418V120.404L92.478 128.879V111.938L107.174 103.418Z" fill="#E69176"/>
<path d="M92.4786 111.874V111.938L88.5755 109.684L77.7554 103.454L88.6121 109.666L92.4786 111.874Z" fill="#EEB49F"/>
<path d="M92.4511 94.9062L77.7554 103.454L92.4786 111.874V111.938L107.174 103.417L92.4511 94.9062Z" fill="#EEB49F"/>
<path d="M16.8487 92.7896V83.298L8.6123 78.5615V88.0715L16.8487 92.7896Z" fill="#EDBD4E"/>
<path d="M8.61148 78.5615L0.384277 83.3071V92.8079L8.61148 88.044V78.5615Z" fill="#FFE991"/>
<path d="M8.61148 88.0449L0.384277 92.8088L8.62976 97.5732L16.8478 92.7905L8.61148 88.0449Z" fill="#CBA244"/>
<path d="M17.2334 48.0351L0 58.0122V38.1128L17.2242 28.1631L17.2334 48.0351Z" fill="#EEB49F"/>
<path d="M34.4937 57.9757L17.2699 67.9986L0 58.0123L17.2334 48.0352V48.0992L34.4937 57.9757Z" fill="#E69176"/>
<path d="M26.3217 21.9607L26.3125 12.4691L18.0762 7.73242V17.2512L26.3217 21.9607Z" fill="#1D6D8B"/>
<path d="M18.0758 7.73242L9.84863 12.4782V21.979L18.0758 17.2147V7.73242Z" fill="#70B7D2"/>
<path d="M18.0758 17.2148L9.84863 21.9792L18.0946 26.7522L26.3218 21.9609L18.0758 17.2148Z" fill="#218FB8"/>
<path d="M41.6859 98.9287L41.6768 113.972L28.6304 121.476V106.405L41.6859 98.9287Z" fill="#E07755"/>
<path d="M28.6214 121.476L15.5933 113.954V98.9014L28.6305 106.451L28.6214 121.476Z" fill="#E69176"/>
<path d="M28.6305 106.45L15.5933 98.9008L28.6488 91.3516L41.6856 98.9283L28.6305 106.45Z" fill="#EEB49F"/>
<path d="M51.9014 25.5246V0L72.9551 12.1024L68.4015 14.7319L68.3923 26.5783L74.0728 29.8857L74.0819 38.2958L51.9014 25.5246Z" fill="#CBA244"/>
<path d="M78.681 8.81348V20.6504L68.3926 26.5781L68.4017 14.7317L78.681 8.81348Z" fill="#EEB49F"/>
<path d="M74.0726 23.3076V23.335L68.3926 26.5785L74.0726 23.3076Z" fill="#CBA244"/>
<path d="M51.901 25.5246L29.7661 38.3511V12.7712L51.901 0V25.5246Z" fill="#FFE991"/>
<path d="M74.0815 38.2961L51.9467 51.1683L29.7661 38.3509L51.901 25.5244L74.0815 38.2961Z" fill="#EDBD4E"/>
<path d="M66.2031 132.222V156.757L44.9021 144.498L44.8838 119.945L66.2031 132.222Z" fill="#FFE991"/>
<path d="M66.2031 132.14V132.222L44.8838 119.945L66.2031 132.14Z" fill="#FFE991"/>
<path d="M87.4762 119.891V144.481L66.2026 156.757V132.223L87.4762 119.891Z" fill="#CBA244"/>
<path d="M87.4763 119.891L66.2031 132.223V132.14L44.8838 119.946L66.1569 107.568L87.4763 119.891Z" fill="#EDBD4E"/>
<path d="M66.2031 132.14V132.222L44.8838 119.945L66.2031 132.14Z" fill="#EDBD4E"/>
<path d="M78.681 20.6504V20.6961L74.1096 23.3164L74.0726 23.3347L68.3926 26.5782L74.0726 23.3073L74.1096 23.289L78.681 20.6504Z" fill="#EEB49F"/>
<path d="M88.9508 14.7409V26.6056L78.6807 20.6504V8.81348L88.9508 14.7409Z" fill="#E07755"/>
<path d="M88.9512 26.6056L78.6628 32.5603L68.3926 26.5782L78.681 20.6961V20.6504L88.9512 26.6056Z" fill="#E69176"/>
</svg>
