<svg width="352" height="421" viewBox="0 0 352 421" fill="none" xmlns="http://www.w3.org/2000/svg">
<path d="M179.442 174.456L173.998 177.612L147.287 162.221V128.283L194.76 100.681L194.833 126.766L231.612 148.01L213.692 158.343V193.798L179.466 174.456" fill="#1D6D8B"/>
<path d="M147.287 162.22L173.998 177.611L173.781 177.732L147.287 162.582V162.22Z" fill="#1D6D8B"/>
<path d="M90.6844 152.418L45.3062 126.284V74.0415L78.256 92.9973V100.825L90.6603 107.979L90.6844 152.418Z" fill="#E07755"/>
<path d="M147.287 162.22L54.29 216.101V173.589L90.6842 152.417L90.6601 107.979L136.568 134.521L147.287 128.307V162.22Z" fill="#70B7D2"/>
<path d="M147.287 162.22L173.998 177.611L173.781 177.732L116.769 210.609V252.206L54.29 216.101L147.287 162.22Z" fill="#218FB8"/>
<path d="M247.244 251.941L243.053 249.508L213.812 266.513L179.465 246.738V174.456L213.692 193.797V204.227L247.244 223.592V251.941Z" fill="#E07755"/>
<path d="M213.812 266.513L213.716 266.561L183.271 249.147L179.465 246.979V246.738L183.464 249.026L213.812 266.513Z" fill="#E07755"/>
<path d="M179.466 246.738L116.77 283.036V210.609L179.466 174.456V246.738Z" fill="#EEB49F"/>
<path d="M204.419 271.981V300.426L173.926 282.795L145.239 299.487L116.77 283.036L179.466 246.738V246.979L213.716 266.561L204.419 271.981Z" fill="#E69176"/>
<path d="M232.962 288.312L232.865 288.36L204.419 271.981L232.962 288.312Z" fill="#E69176"/>
<path d="M316.492 338.53C310.976 340.505 302.305 342.191 288.961 341.878C284 341.758 276.966 340.987 269.909 341.878V341.372L307.05 319.863L316.468 325.283V338.554L316.492 338.53Z" fill="#7EC5D9"/>
<path d="M269.909 341.349V341.855C269.524 341.903 269.138 341.951 268.753 342.024L269.909 341.349Z" fill="#70B7D2"/>
<path d="M239.151 369.914C238.067 372.01 237.031 374.226 236.019 376.538L231.853 374.129L239.175 369.89L239.151 369.914Z" fill="#218FB8"/>
<path d="M329.089 296.115C327.018 299.655 323.55 304.208 326.753 312.445C326.753 312.445 328.993 320.273 328.343 326.584C328.343 326.608 328.343 326.656 328.343 326.68L311.844 317.238V289.828L329.113 279.856C329.113 280.531 329.427 281.446 330.486 282.578C330.486 282.578 334.677 286.408 329.089 296.091V296.115Z" fill="#1D6D8B"/>
<path d="M311.819 317.07L269.909 341.349L268.753 342.023C267.115 342.264 265.477 342.601 263.863 343.083C258.179 344.721 252.856 347.9 248.954 353.874C245.847 358.161 242.427 363.508 239.151 369.915L231.829 374.154L229.974 373.07V331.281L243.125 338.844L281.759 316.54V283.35L302.449 295.248L311.819 289.853V317.094V317.07Z" fill="#70B7D2"/>
<path d="M328.342 326.584C328.342 326.584 328.342 326.656 328.342 326.68C328.053 329.402 327.186 331.81 325.379 333.159C325.379 333.159 323.38 336.05 316.516 338.506C311 340.481 302.329 342.167 288.985 341.854C284.023 341.734 276.99 340.963 269.933 341.854C269.548 341.902 269.162 341.951 268.777 342.023L269.933 341.348L307.074 319.84L311.843 317.094L328.342 326.608V326.584Z" fill="#218FB8"/>
<path d="M301.462 83.6999L273.763 99.6931V105.016L253 93.0694V51.7617C266.103 56.4826 279.351 63.6844 291.803 74.5231C295.151 77.4375 298.379 80.4724 301.462 83.724V83.6999Z" fill="#1D6D8B"/>
<path d="M273.787 104.991V105.136L253.024 93.2612V93.0444L273.787 104.991Z" fill="#1D6D8B"/>
<path d="M253.025 93.0449L233.298 104.486L194.833 126.766L194.736 78.5933L206.803 85.6023L233.852 69.9464V46.4624C240.139 47.7149 246.546 49.4009 253.001 51.7373V93.0449H253.025Z" fill="#70B7D2"/>
<path d="M253.386 135.436L231.613 148.009L194.833 126.765L253.025 93.0444L273.787 104.991V147.166L253.41 135.436" fill="#218FB8"/>
<path d="M290.238 174.841L266.417 188.715L253.41 181.224V135.436L273.787 147.166V165.327L290.238 174.841Z" fill="#E07755"/>
<path d="M253.41 181.225L266.417 188.715L266.32 188.764L253.41 181.369V181.225Z" fill="#E07755"/>
<path d="M253.41 181.224L213.692 204.226V158.342L253.386 135.436L253.41 181.224Z" fill="#EEB49F"/>
<path d="M247.22 199.867L247.244 223.592L213.692 204.227L253.41 181.225V181.369L266.321 188.764L247.22 199.867Z" fill="#E69176"/>
<path d="M327.619 134.136L273.787 165.328V99.669L301.486 83.6758C305.002 87.385 308.302 91.3111 311.337 95.5743C318.804 106.124 324.584 118.601 327.643 134.112L327.619 134.136Z" fill="#FFE991"/>
<path d="M329.98 159.932C329.98 165.64 325.38 172.36 324.464 180.622L302.329 167.832L290.238 174.865L273.763 165.351L289.491 156.246L327.596 134.184C329.137 141.987 329.956 150.538 329.98 159.98V159.932Z" fill="#CBA244"/>
<path d="M302.45 231.684V295.248L281.76 283.349V271.884L247.437 252.037L247.244 251.941L247.22 199.867L302.45 231.684Z" fill="#FFE991"/>
<path d="M336.965 248.81C336.965 248.81 332.942 249.725 334.99 258.613L336.459 271.691C336.459 271.691 336.411 273.161 334.821 275.015C333.785 276.195 332.123 277.544 329.426 278.749C329.426 278.749 329.088 279.158 329.088 279.881L302.449 295.248V231.684L337.952 211.115C344.407 220.894 351.922 233.033 351.874 236.381C351.874 236.381 353.247 246.907 336.965 248.834V248.81Z" fill="#CBA244"/>
<path d="M302.449 231.684V231.467L247.244 199.866L302.353 167.808L324.488 180.597C323.958 185.439 324.656 190.81 328.318 196.831C328.51 197.145 328.703 197.458 328.92 197.771C328.92 197.771 333.159 203.768 337.976 211.09L302.449 231.66V231.684Z" fill="#EDBD4E"/>
<path d="M236.02 376.538C235.298 378.176 234.599 379.886 233.925 381.644C233.563 382.608 233.202 383.547 232.865 384.51C227.783 398.866 226.314 411.631 225.976 420.64L204.371 412.691V394.602L227.349 381.331L229.951 379.814V373.045L231.805 374.129L235.972 376.538H236.02Z" fill="#1D6D8B"/>
<path d="M204.395 394.603V412.692L185.247 405.634L204.395 394.603Z" fill="#70B7D2"/>
<path d="M243.126 294.284V338.819L229.975 331.256V315.191L204.419 300.426V271.98L243.126 294.284Z" fill="#E07755"/>
<path d="M243.126 294.116V294.284L232.865 288.359L204.419 271.98L232.962 288.311L243.126 294.116Z" fill="#E07755"/>
<path d="M281.76 271.884V316.539L243.125 338.819V294.284L281.76 271.884Z" fill="#E69176"/>
<path d="M243.126 294.116V294.284L232.865 288.359L204.419 271.98L232.962 288.311L243.126 294.116Z" fill="#EEB49F"/>
<path d="M243.054 249.508L204.419 271.98L243.126 294.115V294.284L281.76 271.884L243.054 249.508Z" fill="#EEB49F"/>
<path d="M44.294 243.944V218.991L22.6406 206.539V231.54L44.294 243.944Z" fill="#EDBD4E"/>
<path d="M22.6406 206.539L1.01123 219.015V243.992L22.6406 231.468V206.539Z" fill="#FFE991"/>
<path d="M22.6406 231.468L1.01123 243.993L22.6887 256.517L44.294 243.944L22.6406 231.468Z" fill="#CBA244"/>
<path d="M45.306 126.284L0 152.514V100.199L45.2819 74.0415L45.306 126.284Z" fill="#EEB49F"/>
<path d="M90.6842 152.418L45.4023 178.768L0 152.514L45.306 126.284V126.453L90.6842 152.418Z" fill="#E69176"/>
<path d="M69.1995 57.7344L69.1754 32.7811L47.522 20.3286V45.3541L69.1995 57.7344Z" fill="#1D6D8B"/>
<path d="M47.5219 20.3286L25.8926 32.8052V57.7825L47.5219 45.2578V20.3286Z" fill="#70B7D2"/>
<path d="M47.5219 45.2578L25.8926 57.7826L47.5701 70.3315L69.1994 57.7344L47.5219 45.2578Z" fill="#218FB8"/>
<path d="M109.592 260.082L109.568 299.631L75.269 319.358V279.736L109.592 260.082Z" fill="#E07755"/>
<path d="M75.2451 319.358L40.9946 299.584V260.01L75.2692 279.857L75.2451 319.358Z" fill="#E69176"/>
<path d="M75.2692 279.857L40.9946 260.01L75.3174 240.163L109.592 260.082L75.2692 279.857Z" fill="#EEB49F"/>
<path d="M136.449 67.1039V0L191.799 31.8178L179.828 38.7305L179.804 69.8738L194.737 78.5689L194.761 100.68L136.449 67.1039Z" fill="#CBA244"/>
<path d="M206.852 23.1709V54.2902L179.804 69.8739L179.828 38.7305L206.852 23.1709Z" fill="#EEB49F"/>
<path d="M194.737 61.2749V61.3472L179.804 69.8736L194.737 61.2749Z" fill="#CBA244"/>
<path d="M136.448 67.1039L78.2563 100.825V33.5761L136.448 0V67.1039Z" fill="#FFE991"/>
<path d="M194.761 100.68L136.569 134.521L78.2563 100.824L136.448 67.1035L194.761 100.68Z" fill="#EDBD4E"/>
<path d="M174.047 347.611V412.113L118.047 379.886L117.999 315.335L174.047 347.611Z" fill="#FFE991"/>
<path d="M174.047 347.394V347.611L117.999 315.335L174.047 347.394Z" fill="#FFE991"/>
<path d="M229.975 315.192V379.839L174.047 412.114V347.612L229.975 315.192Z" fill="#CBA244"/>
<path d="M229.975 315.191L174.047 347.611V347.394L117.999 315.336L173.927 282.795L229.975 315.191Z" fill="#EDBD4E"/>
<path d="M174.047 347.394V347.611L117.999 315.335L174.047 347.394Z" fill="#EDBD4E"/>
<path d="M206.851 54.29V54.4105L194.832 61.2991L194.736 61.3473L179.803 69.8738L194.736 61.275L194.832 61.2268L206.851 54.29Z" fill="#EEB49F"/>
<path d="M233.852 38.7546V69.9462L206.852 54.2902V23.1709L233.852 38.7546Z" fill="#E07755"/>
<path d="M233.852 69.946L206.803 85.602L179.803 69.8738L206.851 54.4105V54.29L233.852 69.946Z" fill="#E69176"/>
</svg>
