<svg width="500" height="500" viewBox="0 0 500 500" fill="none" xmlns="http://www.w3.org/2000/svg">
<circle cx="250" cy="250" r="250" fill="white"/>
<path d="M253.307 220.159L248.778 222.785L226.552 209.978V181.74L266.054 158.773L266.114 180.478L296.717 198.154L281.806 206.752V236.252L253.327 220.159" fill="#1D6D8B"/>
<path d="M226.552 209.978L248.778 222.784L248.598 222.884L226.552 210.278V209.978Z" fill="#1D6D8B"/>
<path d="M179.455 201.822L141.698 180.077V136.607L169.114 152.38V158.893L179.435 164.846L179.455 201.822Z" fill="#E07755"/>
<path d="M226.552 209.978L149.173 254.81V219.438L179.455 201.821L179.435 164.845L217.634 186.931L226.552 181.76V209.978Z" fill="#70B7D2"/>
<path d="M226.552 209.978L248.778 222.784L248.597 222.884L201.16 250.24V284.852L149.173 254.81L226.552 209.978Z" fill="#218FB8"/>
<path d="M309.723 284.632L306.236 282.608L281.906 296.757L253.327 280.303V220.159L281.806 236.252V244.93L309.723 261.043V284.632Z" fill="#E07755"/>
<path d="M281.906 296.756L281.826 296.796L256.494 282.306L253.327 280.503V280.302L256.654 282.206L281.906 296.756Z" fill="#E07755"/>
<path d="M253.328 280.303L201.16 310.505V250.241L253.328 220.159V280.303Z" fill="#EEB49F"/>
<path d="M274.09 301.305V324.974L248.718 310.304L224.849 324.193L201.16 310.504L253.328 280.302V280.503L281.826 296.796L274.09 301.305Z" fill="#E69176"/>
<path d="M297.839 314.895L297.759 314.935L274.09 301.307L297.839 314.895Z" fill="#E69176"/>
<path d="M367.342 356.679C362.753 358.323 355.538 359.726 344.435 359.465C340.307 359.365 334.455 358.724 328.583 359.465V359.044L359.486 341.147L367.322 345.657V356.699L367.342 356.679Z" fill="#7EC5D9"/>
<path d="M328.582 359.025V359.446C328.261 359.486 327.941 359.526 327.62 359.586L328.582 359.025Z" fill="#70B7D2"/>
<path d="M302.989 382.793C302.087 384.537 301.225 386.38 300.384 388.304L296.917 386.3L303.009 382.773L302.989 382.793Z" fill="#218FB8"/>
<path d="M377.824 321.387C376.101 324.333 373.215 328.121 375.88 334.975C375.88 334.975 377.744 341.488 377.203 346.739C377.203 346.759 377.203 346.799 377.203 346.819L363.475 338.963V316.156L377.844 307.859C377.844 308.42 378.105 309.182 378.987 310.124C378.987 310.124 382.474 313.31 377.824 321.367V321.387Z" fill="#1D6D8B"/>
<path d="M363.454 338.823L328.582 359.025L327.62 359.586C326.257 359.787 324.894 360.067 323.552 360.468C318.822 361.831 314.393 364.476 311.146 369.446C308.561 373.014 305.715 377.463 302.989 382.794L296.897 386.321L295.354 385.419V350.648L306.296 356.941L338.442 338.382V310.766L355.658 320.666L363.454 316.177V338.843V338.823Z" fill="#70B7D2"/>
<path d="M377.202 346.739C377.202 346.739 377.202 346.799 377.202 346.819C376.962 349.084 376.24 351.088 374.737 352.21C374.737 352.21 373.074 354.615 367.362 356.659C362.772 358.303 355.558 359.706 344.455 359.445C340.326 359.345 334.474 358.704 328.602 359.445C328.281 359.485 327.961 359.525 327.64 359.585L328.602 359.024L359.506 341.127L363.474 338.843L377.202 346.759V346.739Z" fill="#218FB8"/>
<path d="M354.836 144.644L331.789 157.951V162.38L314.513 152.44V118.069C325.416 121.997 336.438 127.989 346.8 137.008C349.585 139.433 352.271 141.958 354.836 144.664V144.644Z" fill="#1D6D8B"/>
<path d="M331.809 162.359V162.48L314.533 152.599V152.419L331.809 162.359Z" fill="#1D6D8B"/>
<path d="M314.534 152.419L298.12 161.939L266.114 180.477L266.034 140.395L276.074 146.227L298.581 133.2V113.66C303.811 114.702 309.142 116.105 314.513 118.049V152.419H314.534Z" fill="#70B7D2"/>
<path d="M314.834 187.692L296.717 198.153L266.114 180.477L314.533 152.419L331.809 162.359V197.452L314.854 187.692" fill="#218FB8"/>
<path d="M345.497 220.479L325.676 232.023L314.854 225.79V187.692L331.809 197.452V212.563L345.497 220.479Z" fill="#E07755"/>
<path d="M314.854 225.791L325.676 232.024L325.596 232.064L314.854 225.911V225.791Z" fill="#E07755"/>
<path d="M314.854 225.79L281.806 244.93V206.751L314.834 187.692L314.854 225.79Z" fill="#EEB49F"/>
<path d="M309.704 241.303L309.724 261.044L281.806 244.93L314.854 225.791V225.911L325.596 232.064L309.704 241.303Z" fill="#E69176"/>
<path d="M376.601 186.61L331.809 212.563V157.931L354.856 144.624C357.782 147.71 360.528 150.977 363.053 154.524C369.266 163.302 374.076 173.683 376.621 186.59L376.601 186.61Z" fill="#FFE991"/>
<path d="M378.565 208.074C378.565 212.823 374.737 218.415 373.976 225.289L355.558 214.647L345.497 220.499L331.789 212.583L344.876 205.007L376.581 186.649C377.864 193.143 378.545 200.257 378.565 208.114V208.074Z" fill="#CBA244"/>
<path d="M355.658 267.777V320.666L338.443 310.765V301.226L309.884 284.712L309.724 284.631L309.704 241.302L355.658 267.777Z" fill="#FFE991"/>
<path d="M384.377 282.026C384.377 282.026 381.03 282.787 382.733 290.182L383.956 301.065C383.956 301.065 383.916 302.287 382.593 303.831C381.731 304.813 380.349 305.935 378.104 306.937C378.104 306.937 377.823 307.278 377.823 307.879L355.658 320.665V267.776L385.198 250.661C390.57 258.798 396.822 268.899 396.782 271.684C396.782 271.684 397.925 280.442 384.377 282.046V282.026Z" fill="#CBA244"/>
<path d="M355.657 267.776V267.596L309.723 241.302L355.577 214.627L373.995 225.269C373.554 229.297 374.135 233.766 377.181 238.777C377.342 239.037 377.502 239.298 377.683 239.558C377.683 239.558 381.21 244.549 385.218 250.641L355.657 267.756V267.776Z" fill="#EDBD4E"/>
<path d="M300.384 388.304C299.783 389.667 299.202 391.09 298.641 392.553C298.34 393.355 298.04 394.136 297.759 394.938C293.53 406.883 292.308 417.504 292.027 425L274.05 418.386V403.335L293.17 392.293L295.334 391.03V385.398L296.877 386.3L300.344 388.304H300.384Z" fill="#1D6D8B"/>
<path d="M274.07 403.335V418.386L258.138 412.514L274.07 403.335Z" fill="#70B7D2"/>
<path d="M306.297 319.864V356.92L295.354 350.627V337.26L274.09 324.974V301.306L306.297 319.864Z" fill="#E07755"/>
<path d="M306.297 319.724V319.864L297.759 314.934L274.09 301.306L297.839 314.894L306.297 319.724Z" fill="#E07755"/>
<path d="M338.443 301.225V338.382L306.296 356.92V319.863L338.443 301.225Z" fill="#E69176"/>
<path d="M306.297 319.724V319.864L297.759 314.934L274.09 301.306L297.839 314.894L306.297 319.724Z" fill="#EEB49F"/>
<path d="M306.237 282.607L274.09 301.305L306.297 319.723V319.864L338.443 301.225L306.237 282.607Z" fill="#EEB49F"/>
<path d="M140.856 277.978V257.215L122.839 246.854V267.657L140.856 277.978Z" fill="#EDBD4E"/>
<path d="M122.838 246.854L104.841 257.235V278.018L122.838 267.597V246.854Z" fill="#FFE991"/>
<path d="M122.838 267.597L104.841 278.018L122.878 288.44L140.855 277.978L122.838 267.597Z" fill="#CBA244"/>
<path d="M141.698 180.077L104 201.902V158.372L141.678 136.607L141.698 180.077Z" fill="#EEB49F"/>
<path d="M179.455 201.822L141.778 223.747L104 201.902L141.698 180.077V180.217L179.455 201.822Z" fill="#E69176"/>
<path d="M161.579 123.039L161.559 102.276L143.542 91.9146V112.737L161.579 123.039Z" fill="#1D6D8B"/>
<path d="M143.541 91.9146L125.544 102.296V123.079L143.541 112.657V91.9146Z" fill="#70B7D2"/>
<path d="M143.541 112.657L125.544 123.079L143.582 133.52L161.579 123.039L143.541 112.657Z" fill="#218FB8"/>
<path d="M195.188 291.405L195.168 324.313L166.629 340.727V307.759L195.188 291.405Z" fill="#E07755"/>
<path d="M166.609 340.727L138.11 324.273V291.346L166.629 307.86L166.609 340.727Z" fill="#E69176"/>
<path d="M166.629 307.859L138.11 291.345L166.669 274.831L195.187 291.405L166.629 307.859Z" fill="#EEB49F"/>
<path d="M217.534 130.835V75L263.589 101.474L253.628 107.226L253.608 133.14L266.034 140.375L266.054 158.772L217.534 130.835Z" fill="#CBA244"/>
<path d="M276.115 94.2798V120.173L253.609 133.14L253.629 107.226L276.115 94.2798Z" fill="#EEB49F"/>
<path d="M266.034 125.984V126.044L253.609 133.139L266.034 125.984Z" fill="#CBA244"/>
<path d="M217.534 130.835L169.114 158.893V102.937L217.534 75V130.835Z" fill="#FFE991"/>
<path d="M266.054 158.772L217.634 186.93L169.114 158.892L217.534 130.834L266.054 158.772Z" fill="#EDBD4E"/>
<path d="M248.819 364.235V417.906L202.223 391.09L202.183 337.38L248.819 364.235Z" fill="#FFE991"/>
<path d="M248.819 364.055V364.235L202.183 337.38L248.819 364.055Z" fill="#FFE991"/>
<path d="M295.354 337.26V391.051L248.818 417.906V364.236L295.354 337.26Z" fill="#CBA244"/>
<path d="M295.354 337.26L248.819 364.236V364.055L202.183 337.38L248.718 310.305L295.354 337.26Z" fill="#EDBD4E"/>
<path d="M248.819 364.055V364.235L202.183 337.38L248.819 364.055Z" fill="#EDBD4E"/>
<path d="M276.114 120.173V120.273L266.114 126.005L266.033 126.045L253.608 133.14L266.033 125.985L266.114 125.945L276.114 120.173Z" fill="#EEB49F"/>
<path d="M298.58 107.246V133.2L276.114 120.173V94.2798L298.58 107.246Z" fill="#E07755"/>
<path d="M298.58 133.2L276.074 146.226L253.608 133.14L276.114 120.273V120.173L298.58 133.2Z" fill="#E69176"/>
</svg>
