<?xml version="1.0" encoding="UTF-8"?><svg id="Layer_1" xmlns="http://www.w3.org/2000/svg" viewBox="0 0 610.81 227.21"><defs><style>.cls-1{fill:none;}.cls-2{fill:#eeb49f;}.cls-3{fill:#ffe991;}.cls-4{fill:#edbd4e;}.cls-5{fill:#e69176;}.cls-6{fill:#7ec5d9;}.cls-7{fill:#e07755;}.cls-8{fill:#cba244;}.cls-9{fill:#1d6d8b;}.cls-10{fill:#218fb8;}.cls-11{fill:#70b7d2;}</style></defs><rect class="cls-1" x=".43" y="-.27" width="610.38" height="227.55"/><g><g><polygon points="242.03 107.88 226.45 71.27 215.69 71.27 215.69 120.18 225.12 120.18 225.12 88.6 238.33 120.18 245.74 120.18 258.94 88.6 258.94 120.18 268.37 120.18 268.37 71.27 257.68 71.27 242.03 107.88"/><path d="M283.18,69.88c-1.68,0-3.05,.52-4.12,1.57-1.07,1.05-1.61,2.34-1.61,3.88s.53,2.77,1.61,3.84c1.07,1.07,2.45,1.61,4.12,1.61,1.58,0,2.92-.53,4.02-1.61,1.09-1.07,1.64-2.35,1.64-3.84s-.55-2.83-1.64-3.88c-1.09-1.05-2.43-1.57-4.02-1.57Z"/><rect x="278.64" y="85.25" width="9.01" height="34.93"/><path d="M322.48,86.5c-1.93-1.16-4.3-1.75-7.09-1.75-1.86,0-3.6,.36-5.21,1.08-1.61,.72-2.97,1.71-4.09,2.97l-.63-3.56h-8.1v34.93h8.94v-19.14c0-2.7,.57-4.75,1.71-6.15,1.14-1.4,2.81-2.1,5-2.1s3.76,.7,4.86,2.1c1.09,1.4,1.64,3.4,1.64,6.01v19.28h8.94v-20.4c0-3.26-.51-6-1.54-8.21-1.02-2.21-2.5-3.9-4.44-5.07Z"/><path d="M360.81,89.1c-.94-1-2.1-1.89-3.49-2.67-2-1.12-4.33-1.68-6.99-1.68-3.07,0-5.78,.73-8.1,2.2-2.33,1.47-4.15,3.55-5.45,6.25-1.3,2.7-1.96,5.87-1.96,9.5s.65,6.73,1.96,9.43c1.3,2.7,3.12,4.8,5.45,6.29,2.33,1.49,5.03,2.24,8.1,2.24,2.38,0,4.49-.47,6.36-1.4,1.86-.93,3.33-2.07,4.4-3.42l.56,4.33h8.1v-50.31h-8.94v19.23Zm-1.15,18.92c-.77,1.44-1.77,2.55-3,3.32-1.23,.77-2.6,1.15-4.09,1.15-2.42,0-4.39-.91-5.9-2.72-1.51-1.82-2.27-4.17-2.27-7.06s.76-5.24,2.27-7.06c1.51-1.82,3.48-2.72,5.9-2.72,1.49,0,2.85,.38,4.09,1.15,1.23,.77,2.24,1.88,3,3.32,.77,1.44,1.15,3.21,1.15,5.31s-.38,3.87-1.15,5.31Z"/><polygon points="435.64 71.27 396.02 71.27 396.02 79.17 411.11 79.17 411.11 120.18 420.54 120.18 420.54 79.17 435.64 79.17 435.64 71.27"/><path d="M459.18,86.89c-2.56-1.42-5.52-2.13-8.87-2.13s-6.24,.77-8.8,2.31c-2.56,1.54-4.58,3.63-6.04,6.29s-2.2,5.68-2.2,9.08c0,3.59,.73,6.75,2.2,9.5,1.47,2.75,3.53,4.89,6.18,6.43,2.66,1.54,5.75,2.31,9.29,2.31s6.7-.83,9.47-2.48c2.77-1.65,4.86-3.97,6.25-6.95l-7.97-2.31c-.61,1.21-1.6,2.17-2.97,2.86-1.37,.7-2.9,1.05-4.58,1.05-1.49,0-2.81-.29-3.95-.87-1.14-.58-2.1-1.4-2.86-2.45-.77-1.05-1.25-2.32-1.43-3.81h24.03c.14-.7,.24-1.36,.31-1.99,.07-.63,.1-1.2,.1-1.71-.05-3.45-.78-6.47-2.2-9.08-1.42-2.61-3.41-4.62-5.97-6.04Zm-16.21,12.33c.23-1.35,.71-2.53,1.43-3.53,.72-1,1.59-1.79,2.62-2.38,1.02-.58,2.12-.9,3.28-.94,1.35,0,2.55,.29,3.6,.87,1.05,.58,1.9,1.4,2.55,2.45,.65,1.05,1.02,2.22,1.12,3.53h-14.6Z"/><path d="M488.88,84.76c-3.77,0-6.96,.84-9.57,2.52-2.61,1.68-4.43,4.08-5.45,7.2l7.76,2.79c.42-1.63,1.25-2.85,2.48-3.67,1.23-.81,2.69-1.22,4.37-1.22,1.91,0,3.31,.41,4.19,1.22,.88,.82,1.33,1.74,1.33,2.76v2.52l-8.73,.91c-4.29,.51-7.49,1.74-9.61,3.67-2.12,1.93-3.18,4.37-3.18,7.3,0,2,.49,3.74,1.47,5.21s2.34,2.61,4.09,3.42c1.75,.81,3.78,1.22,6.11,1.22,2.47,0,4.44-.41,5.9-1.22s2.78-1.97,3.95-3.46l.7,4.26h8.24v-22.85c0-3.73-1.19-6.75-3.56-9.08-2.38-2.33-5.87-3.49-10.48-3.49Zm5.1,20.82c0,1.72-.3,3.18-.91,4.37-.61,1.19-1.48,2.07-2.62,2.66-1.14,.58-2.53,.87-4.16,.87-1.4,0-2.5-.34-3.32-1.01-.82-.67-1.22-1.53-1.22-2.55s.38-1.83,1.15-2.55c.77-.72,1.94-1.2,3.53-1.43l7.55-.84v.49Z"/><path d="M563.01,91.57c-1.12-2.21-2.69-3.9-4.72-5.07-2.03-1.16-4.41-1.75-7.16-1.75-2.38,0-4.59,.49-6.64,1.47-2.05,.98-3.68,2.33-4.89,4.05-1.16-1.77-2.68-3.13-4.54-4.09-1.86-.95-3.89-1.43-6.08-1.43-1.86,0-3.58,.36-5.14,1.08-1.56,.72-2.9,1.67-4.02,2.83l-.63-3.42h-8.1v34.93h8.94v-19.14c0-2.66,.56-4.67,1.68-6.04,1.12-1.37,2.79-2.06,5.03-2.06s3.8,.68,4.82,2.03c1.02,1.35,1.54,3.33,1.54,5.94v19.28h8.94v-19.07c0-2.7,.62-4.74,1.85-6.11,1.23-1.37,2.95-2.06,5.14-2.06s3.8,.68,4.96,2.03c1.16,1.35,1.75,3.33,1.75,5.94v19.28h8.94v-20.4c0-3.26-.56-6-1.68-8.21Z"/></g><g><polygon points="216.43 148.1 221 148.1 221 160.51 223.86 160.51 223.86 148.1 228.42 148.1 228.42 145.71 216.43 145.71 216.43 148.1"/><polygon points="234.37 160.51 244.77 160.51 244.77 158.12 237.22 158.12 237.22 154.17 242.87 154.17 242.87 151.86 237.22 151.86 237.22 148.1 244.77 148.1 244.77 145.71 234.37 145.71 234.37 160.51"/><path d="M259.6,153.08c-.49-.33-1.04-.6-1.64-.81-.6-.21-1.2-.41-1.79-.59-.47-.15-.9-.31-1.31-.48-.41-.16-.73-.36-.96-.59-.23-.23-.35-.55-.35-.94,0-.35,.1-.66,.31-.93,.2-.27,.49-.47,.85-.61s.75-.2,1.17-.19c.38,0,.75,.07,1.1,.2,.35,.13,.65,.31,.88,.54,.23,.23,.38,.49,.45,.8l2.64-.7c-.21-.7-.56-1.29-1.04-1.77-.48-.47-1.06-.83-1.76-1.08-.69-.25-1.47-.37-2.33-.37-1.02,0-1.91,.17-2.7,.5-.78,.33-1.39,.81-1.83,1.44-.44,.63-.66,1.4-.66,2.32,0,.72,.13,1.31,.39,1.78,.26,.47,.61,.85,1.06,1.14,.44,.3,.94,.54,1.49,.74,.55,.2,1.11,.38,1.69,.55,.61,.18,1.14,.37,1.6,.57,.46,.2,.81,.44,1.07,.72,.25,.28,.38,.63,.38,1.06,0,.54-.2,.99-.61,1.35-.41,.37-1.02,.55-1.84,.55-.54,0-.99-.08-1.37-.23-.38-.15-.69-.38-.92-.68-.23-.3-.39-.64-.48-1.04l-2.64,.74c.15,.75,.49,1.39,.99,1.92,.51,.54,1.15,.95,1.94,1.24,.78,.29,1.66,.43,2.63,.43,1.16,0,2.12-.2,2.89-.59,.77-.39,1.35-.92,1.73-1.59,.39-.66,.58-1.41,.58-2.24,0-.76-.15-1.4-.44-1.9-.3-.51-.69-.93-1.18-1.26Z"/><polygon points="266.67 148.1 271.23 148.1 271.23 160.51 274.09 160.51 274.09 148.1 278.66 148.1 278.66 145.71 266.67 145.71 266.67 148.1"/><path d="M290.97,151.88c-.51,0-.93,.17-1.26,.5-.33,.33-.5,.74-.5,1.22s.17,.88,.5,1.21c.33,.32,.75,.49,1.26,.49s.93-.16,1.27-.49c.34-.32,.51-.73,.51-1.21s-.17-.88-.51-1.22-.76-.5-1.27-.5Z"/><polygon points="301.21 148.1 305.77 148.1 305.77 160.51 308.63 160.51 308.63 148.1 313.2 148.1 313.2 145.71 301.21 145.71 301.21 148.1"/><path d="M327.68,154.46c.67-.27,1.22-.62,1.64-1.07,.42-.44,.73-.94,.93-1.48s.3-1.09,.3-1.64c0-.82-.2-1.58-.59-2.27-.39-.7-.98-1.25-1.76-1.67-.78-.42-1.76-.62-2.96-.62h-6.09v14.81h2.86v-5.65h2.37l3.28,5.65h3.19l-3.58-5.91c.14-.04,.29-.09,.42-.14Zm-5.68-6.37h3.15c.85,0,1.47,.19,1.87,.58,.4,.39,.6,.92,.6,1.6,0,.45-.09,.85-.26,1.18-.18,.34-.44,.59-.8,.76-.36,.17-.83,.25-1.41,.25h-3.15v-4.38Z"/><polygon points="336.82 160.51 347.23 160.51 347.23 158.12 339.68 158.12 339.68 154.17 345.33 154.17 345.33 151.86 339.68 151.86 339.68 148.1 347.23 148.1 347.23 145.71 336.82 145.71 336.82 160.51"/><path d="M357.51,145.71l-5.31,14.81h2.96l1.2-3.43h7.03l1.2,3.43h2.94l-5.31-14.81h-4.72Zm-.32,9.01l2.31-6.62h.74l2.32,6.62h-5.38Z"/><polygon points="370.71 148.1 375.28 148.1 375.28 160.51 378.13 160.51 378.13 148.1 382.7 148.1 382.7 145.71 370.71 145.71 370.71 148.1"/><path d="M394.59,151.88c-.51,0-.93,.17-1.26,.5-.33,.33-.5,.74-.5,1.22s.17,.88,.5,1.21c.33,.32,.75,.49,1.26,.49s.93-.16,1.27-.49c.34-.32,.51-.73,.51-1.21s-.17-.88-.51-1.22-.76-.5-1.27-.5Z"/><polygon points="404.83 148.1 409.39 148.1 409.39 160.51 412.25 160.51 412.25 148.1 416.82 148.1 416.82 145.71 404.83 145.71 404.83 148.1"/><path d="M431.3,154.46c.67-.27,1.22-.62,1.64-1.07,.42-.44,.73-.94,.93-1.48,.2-.54,.3-1.09,.3-1.64,0-.82-.2-1.58-.59-2.27-.39-.7-.98-1.25-1.76-1.67-.78-.42-1.76-.62-2.96-.62h-6.09v14.81h2.86v-5.65h2.37l3.28,5.65h3.19l-3.58-5.91c.14-.04,.29-.09,.42-.14Zm-5.68-6.37h3.15c.85,0,1.47,.19,1.87,.58,.4,.39,.6,.92,.6,1.6,0,.45-.09,.85-.26,1.18-.18,.34-.44,.59-.8,.76-.36,.17-.83,.25-1.41,.25h-3.15v-4.38Z"/><path d="M444.46,145.71l-5.31,14.81h2.96l1.2-3.43h7.03l1.2,3.43h2.94l-5.31-14.81h-4.72Zm-.32,9.01l2.31-6.62h.74l2.32,6.62h-5.38Z"/><polygon points="469.27 156.01 462.78 145.71 459.88 145.71 459.88 160.51 462.74 160.51 462.74 150.23 469.23 160.51 472.13 160.51 472.13 145.71 469.27 145.71 469.27 156.01"/><path d="M487.38,153.08c-.49-.33-1.04-.6-1.64-.81-.6-.21-1.2-.41-1.79-.59-.47-.15-.9-.31-1.31-.48-.41-.16-.73-.36-.96-.59s-.35-.55-.35-.94c0-.35,.1-.66,.31-.93,.2-.27,.49-.47,.85-.61s.75-.2,1.17-.19c.38,0,.75,.07,1.1,.2,.35,.13,.65,.31,.88,.54,.23,.23,.38,.49,.45,.8l2.64-.7c-.21-.7-.56-1.29-1.04-1.77-.48-.47-1.06-.83-1.76-1.08-.69-.25-1.47-.37-2.33-.37-1.02,0-1.91,.17-2.7,.5-.78,.33-1.39,.81-1.83,1.44-.44,.63-.66,1.4-.66,2.32,0,.72,.13,1.31,.39,1.78,.26,.47,.61,.85,1.06,1.14,.44,.3,.94,.54,1.49,.74,.55,.2,1.11,.38,1.69,.55,.61,.18,1.14,.37,1.6,.57,.46,.2,.81,.44,1.07,.72,.25,.28,.38,.63,.38,1.06,0,.54-.2,.99-.61,1.35-.41,.37-1.02,.55-1.84,.55-.54,0-.99-.08-1.38-.23-.38-.15-.69-.38-.92-.68-.23-.3-.39-.64-.48-1.04l-2.64,.74c.16,.75,.49,1.39,.99,1.92,.51,.54,1.15,.95,1.94,1.24,.78,.29,1.66,.43,2.63,.43,1.16,0,2.12-.2,2.89-.59s1.35-.92,1.73-1.59c.39-.66,.58-1.41,.58-2.24,0-.76-.15-1.4-.44-1.9s-.69-.93-1.18-1.26Z"/><polygon points="495.14 160.51 498 160.51 498 154.17 503.64 154.17 503.64 151.86 498 151.86 498 148.1 505.55 148.1 505.55 145.71 495.14 145.71 495.14 160.51"/><path d="M523.16,147.67c-.68-.68-1.48-1.2-2.4-1.57-.92-.37-1.9-.55-2.94-.55s-2.04,.18-2.96,.55c-.92,.37-1.72,.89-2.4,1.57-.68,.68-1.22,1.48-1.61,2.4-.39,.92-.58,1.94-.58,3.04s.19,2.13,.58,3.06c.39,.92,.92,1.72,1.61,2.39,.68,.67,1.48,1.19,2.4,1.55,.92,.37,1.9,.55,2.96,.55s2.02-.18,2.93-.55c.91-.37,1.71-.88,2.4-1.55,.69-.67,1.23-1.47,1.62-2.39,.39-.92,.58-1.94,.58-3.06s-.19-2.11-.58-3.04c-.39-.92-.92-1.72-1.61-2.4Zm-1.31,8.11c-.4,.77-.95,1.36-1.64,1.79-.69,.42-1.49,.63-2.39,.63s-1.72-.21-2.42-.63c-.7-.42-1.24-1.02-1.64-1.79-.4-.77-.59-1.66-.59-2.68s.2-1.93,.59-2.7c.39-.77,.94-1.36,1.64-1.78,.7-.42,1.51-.62,2.42-.62s1.7,.21,2.39,.62c.69,.42,1.24,1.01,1.64,1.78,.4,.77,.6,1.67,.6,2.7s-.2,1.91-.6,2.68Z"/><path d="M539.82,154.46c.67-.27,1.22-.62,1.64-1.07,.42-.44,.73-.94,.93-1.48,.2-.54,.3-1.09,.3-1.64,0-.82-.2-1.58-.59-2.27-.39-.7-.98-1.25-1.76-1.67-.78-.42-1.76-.62-2.96-.62h-6.09v14.81h2.86v-5.65h2.37l3.28,5.65h3.19l-3.58-5.91c.14-.04,.29-.09,.42-.14Zm-5.68-6.37h3.15c.85,0,1.47,.19,1.87,.58,.4,.39,.6,.92,.6,1.6,0,.45-.09,.85-.26,1.18-.18,.34-.44,.59-.8,.76-.36,.17-.83,.25-1.41,.25h-3.15v-4.38Z"/><polygon points="561.68 145.71 556.94 156.79 552.23 145.71 548.97 145.71 548.97 160.51 551.83 160.51 551.83 150.95 555.82 160.51 558.07 160.51 562.06 150.95 562.06 160.51 564.92 160.51 564.92 145.71 561.68 145.71"/></g><g><g><polyline class="cls-9" points="120.39 98.72 118.13 100.03 107.04 93.64 107.04 79.55 126.75 68.09 126.78 78.92 142.05 87.74 134.61 92.03 134.61 106.75 120.4 98.72"/><polygon class="cls-9" points="107.04 93.64 118.13 100.03 118.04 100.08 107.04 93.79 107.04 93.64"/><polygon class="cls-7" points="83.54 89.57 64.7 78.72 64.7 57.03 78.38 64.9 78.38 68.15 83.53 71.12 83.54 89.57"/><polygon class="cls-11" points="107.04 93.64 68.43 116.01 68.43 98.36 83.54 89.57 83.53 71.12 102.59 82.14 107.04 79.56 107.04 93.64"/><polygon class="cls-10" points="107.04 93.64 118.13 100.03 118.04 100.08 94.37 113.73 94.37 131 68.43 116.01 107.04 93.64"/></g><g><polygon class="cls-7" points="148.54 130.89 146.8 129.88 134.66 136.94 134.66 136.94 120.4 128.73 120.4 98.72 134.61 106.75 134.61 111.08 148.54 119.12 148.54 130.89"/><polygon class="cls-7" points="134.66 136.94 134.62 136.96 121.98 129.73 120.4 128.83 120.4 128.73 122.06 129.68 134.66 136.94"/><polygon class="cls-2" points="120.4 128.73 94.37 143.8 94.37 113.73 120.4 98.72 120.4 128.73"/><polygon class="cls-5" points="130.76 139.21 130.76 151.02 118.1 143.7 106.19 150.63 94.37 143.8 120.4 128.73 120.4 128.83 134.62 136.96 130.76 139.21"/><polygon class="cls-5" points="142.61 145.99 142.57 146.01 130.76 139.21 142.61 145.99"/></g><path class="cls-6" d="M177.29,166.84c-2.29,.82-5.89,1.52-11.43,1.39-2.06-.05-4.98-.37-7.91,0v-.21l15.42-8.93,3.91,2.25v5.51Z"/><path class="cls-11" d="M157.95,168.01v.21c-.16,.02-.32,.04-.48,.07l.48-.28Z"/><path class="cls-10" d="M145.18,179.87c-.45,.87-.88,1.79-1.3,2.75l-1.73-1,3.04-1.76Z"/><path class="cls-9" d="M182.52,149.23c-.86,1.47-2.3,3.36-.97,6.78,0,0,.93,3.25,.66,5.87,0,.01,0,.03,0,.04l-6.85-3.92v-11.38l7.17-4.14c0,.28,.13,.66,.57,1.13,0,0,1.74,1.59-.58,5.61Z"/><path class="cls-11" d="M175.35,157.93l-17.4,10.08-.48,.28h0c-.68,.1-1.36,.24-2.03,.44-2.36,.68-4.57,2-6.19,4.48-1.29,1.78-2.71,4-4.07,6.66h0l-3.04,1.76-.77-.45v-17.35l5.46,3.14h0l16.04-9.26v-13.78l8.59,4.94h0l3.89-2.24v11.31Z"/><path class="cls-10" d="M182.21,161.88s0,.03,0,.04c-.12,1.13-.48,2.13-1.23,2.69,0,0-.83,1.2-3.68,2.22-2.29,.82-5.89,1.52-11.43,1.39-2.06-.05-4.98-.37-7.91,0-.16,.02-.32,.04-.48,.07l.48-.28,15.42-8.93,1.98-1.14,6.85,3.95Z"/><path class="cls-9" d="M171.05,61.04l-11.5,6.64v2.21l-8.62-4.96v-17.15c5.44,1.96,10.94,4.95,16.11,9.45,1.39,1.21,2.73,2.47,4.01,3.82Z"/><polygon class="cls-9" points="159.56 69.88 159.56 69.94 150.94 65.01 150.94 64.92 159.56 69.88"/><path class="cls-11" d="M150.94,64.92l-8.19,4.75-15.97,9.25-.04-20,5.01,2.91,11.23-6.5v-9.75c2.61,.52,5.27,1.22,7.95,2.19v17.15Z"/><polyline class="cls-10" points="151.09 82.52 142.05 87.74 126.78 78.92 150.94 64.92 159.56 69.88 159.56 87.39 151.1 82.52"/><polygon class="cls-7" points="166.39 98.88 156.5 104.64 151.1 101.53 151.1 82.52 159.56 87.39 159.56 94.93 166.39 98.88"/><polygon class="cls-7" points="151.1 101.53 156.5 104.64 156.46 104.66 156.46 104.66 151.1 101.59 151.1 101.53"/><polygon class="cls-2" points="151.1 101.53 134.61 111.08 134.61 92.03 151.09 82.52 151.1 101.53"/><polygon class="cls-5" points="148.53 109.27 148.54 119.12 134.61 111.08 151.1 101.53 151.1 101.59 156.46 104.66 148.53 109.27"/><path class="cls-3" d="M181.91,81.98l-22.35,12.95v-27.26l11.5-6.64c1.46,1.54,2.83,3.17,4.09,4.94,3.1,4.38,5.5,9.56,6.77,16Z"/><path class="cls-8" d="M182.89,92.69c0,2.37-1.91,5.16-2.29,8.59l-9.19-5.31-5.02,2.92-6.84-3.95,6.53-3.78,15.82-9.16c.64,3.24,.98,6.79,.99,10.71Z"/><polygon class="cls-3" points="171.46 122.48 171.46 148.87 162.87 143.93 162.87 139.17 148.62 130.93 148.54 130.89 148.53 109.27 171.46 122.48"/><path class="cls-8" d="M185.79,129.59s-1.67,.38-.82,4.07l.61,5.43s-.02,.61-.68,1.38c-.43,.49-1.12,1.05-2.24,1.55,0,0-.14,.17-.14,.47l-11.06,6.38v-26.39l14.74-8.54c2.68,4.06,5.8,9.1,5.78,10.49,0,0,.57,4.37-6.19,5.17Z"/><path class="cls-4" d="M171.46,122.48v-.09l-22.92-13.12,22.88-13.31,9.19,5.31h0c-.22,2.01,.07,4.24,1.59,6.74,.08,.13,.16,.26,.25,.39,0,0,1.76,2.49,3.76,5.53l-14.75,8.54Z"/><g><path class="cls-9" d="M143.88,182.62c-.3,.68-.59,1.39-.87,2.12-.15,.4-.3,.79-.44,1.19-2.11,5.96-2.72,11.26-2.86,15l-8.97-3.3v-7.51l9.54-5.51,1.08-.63v-2.81l.77,.45,1.73,1Z"/><polygon class="cls-11" points="130.75 190.12 130.75 197.63 122.8 194.7 130.75 190.12"/></g><g><polygon class="cls-7" points="146.83 148.47 146.83 166.96 141.37 163.82 141.37 157.15 130.76 151.02 130.76 139.21 146.83 148.47"/><polygon class="cls-7" points="146.83 148.4 146.83 148.47 142.57 146.01 130.76 139.21 142.61 145.99 146.83 148.4"/><polygon class="cls-5" points="162.87 139.17 162.87 157.71 146.83 166.96 146.83 148.47 162.87 139.17"/><polygon class="cls-2" points="146.83 148.4 146.83 148.47 142.57 146.01 130.76 139.21 142.61 145.99 146.83 148.4"/><polygon class="cls-2" points="146.8 129.88 130.76 139.21 146.83 148.4 146.83 148.47 162.87 139.17 146.8 129.88"/></g><g><polygon class="cls-4" points="64.28 127.57 64.28 117.21 55.29 112.04 55.29 122.42 64.28 127.57"/><polygon class="cls-3" points="55.29 112.04 46.31 117.22 46.31 127.59 55.29 122.39 55.29 112.04"/><polygon class="cls-8" points="55.29 122.39 46.31 127.59 55.31 132.79 64.28 127.57 55.29 122.39"/></g><g><polygon class="cls-2" points="64.7 78.72 45.89 89.61 45.89 67.89 64.69 57.03 64.7 78.72"/><polygon class="cls-5" points="83.54 89.57 64.74 100.51 45.89 89.61 64.7 78.72 64.7 78.79 83.54 89.57"/></g><g><polygon class="cls-9" points="74.62 50.26 74.61 39.9 65.62 34.73 65.62 45.12 74.62 50.26"/><polygon class="cls-11" points="65.62 34.73 56.64 39.91 56.64 50.28 65.62 45.08 65.62 34.73"/><polygon class="cls-10" points="65.62 45.08 56.64 50.28 65.64 55.49 74.62 50.26 65.62 45.08"/></g><g><polygon class="cls-7" points="91.39 134.27 91.38 150.69 77.14 158.88 77.14 142.43 91.39 134.27"/><polygon class="cls-5" points="77.13 158.88 62.91 150.67 62.91 134.24 77.14 142.48 77.13 158.88"/><polygon class="cls-2" points="77.14 142.48 62.91 134.24 77.16 126 91.39 134.27 77.14 142.48"/></g><g><polygon class="cls-8" points="102.54 54.15 102.54 26.29 125.52 39.5 120.55 42.37 120.54 55.3 126.74 58.91 126.75 68.09 102.54 54.15"/><polygon class="cls-2" points="131.77 35.91 131.77 48.83 120.54 55.3 120.55 42.37 131.77 35.91"/><polygon class="cls-8" points="126.74 51.73 126.74 51.76 120.54 55.3 126.74 51.73"/><polygon class="cls-3" points="102.54 54.15 78.38 68.15 78.38 40.23 102.54 26.29 102.54 54.15"/><polygon class="cls-4" points="126.75 68.09 102.59 82.14 78.38 68.15 102.54 54.15 126.75 68.09"/></g><g><polygon class="cls-3" points="118.15 170.61 118.15 197.39 94.9 184.01 94.88 157.21 118.15 170.61"/><polygon class="cls-3" points="118.15 170.52 118.15 170.61 94.88 157.21 118.15 170.52"/><polygon class="cls-8" points="141.37 157.15 141.37 183.99 118.15 197.39 118.15 170.61 141.37 157.15"/><polygon class="cls-4" points="141.37 157.15 118.15 170.61 118.15 170.52 94.88 157.21 118.1 143.7 141.37 157.15"/><polygon class="cls-4" points="118.15 170.52 118.15 170.61 94.88 157.21 118.15 170.52"/></g><g><polygon class="cls-2" points="131.77 48.83 131.77 48.88 126.78 51.74 126.74 51.76 120.54 55.3 126.74 51.73 126.78 51.71 131.77 48.83"/><polygon class="cls-7" points="142.98 42.38 142.98 55.33 131.77 48.83 131.77 35.91 142.98 42.38"/><polygon class="cls-5" points="142.98 55.33 131.75 61.83 120.54 55.3 131.77 48.88 131.77 48.83 142.98 55.33"/></g></g></g></svg>