<svg xmlns="http://www.w3.org/2000/svg" width="98.882" height="114.194" viewBox="0 0 98.882 114.194"><g transform="translate(49.527 57.192)"><g transform="translate(-43.409 -50.131)"><g transform="translate(0 0)" fill="none" stroke-miterlimit="10"><path d="M86.622,24.933,43.287,0,0,24.976V74.985L43.373,100.06,86.644,74.884Z" stroke="none"/><path d="M 43.28659820556641 -7.62939453125e-06 L 1.52587890625e-05 24.97591400146484 L 1.52587890625e-05 74.98471832275391 L 43.37295913696289 100.0598297119141 L 86.64390563964844 74.88424682617188 L 86.62190246582031 24.93288421630859 L 43.28659820556641 -7.62939453125e-06 M 43.2822380065918 -7.06103515625 L 92.73851776123047 21.39352416992188 L 92.76362609863281 78.40205383300781 L 43.38270950317383 107.1324920654297 L -6.118148803710938 78.51466369628906 L -6.118148803710938 21.44249725341797 L 43.2822380065918 -7.06103515625 Z" stroke="none" fill="#fff"/></g><g transform="translate(0 0)"><path d="M185.232,75.035l-.022-50.052L141.787,0V50.065Z" transform="translate(-98.413)" fill="#e07654"/><path d="M43.361,0,0,25.026v50.11l43.374-25.07Z" transform="translate(0 0)" fill="#eac8a7"/><path d="M43.374,163.661,0,188.732l43.46,25.126,43.358-25.226Z" transform="translate(0 -113.596)" fill="#e69176"/></g></g></g></svg>