<?xml version="1.0" encoding="UTF-8"?><svg id="Layer_2" xmlns="http://www.w3.org/2000/svg" viewBox="0 0 329.13 380.09"><defs><style>.cls-1{fill:#218fb8;}.cls-2{fill:#fff;stroke:#218fb8;stroke-miterlimit:10;stroke-width:4px;}</style></defs><g id="Layer_1-2"><g><polygon class="cls-1" points="329.05 94.71 164.43 0 164.38 0 0 94.88 0 284.84 164.76 380.09 329.13 284.46 329.05 94.71"/><g><path class="cls-2" d="M313.71,202.18c-11.3-21.99-28.39-43.75-49.56-63.62l3.76-19.03c.2-.97,.3-1.97,.3-3,0-8.47-6.89-15.35-15.35-15.35-6.27,0-11.84,3.75-14.2,9.56l-1.98,4.84c-9.99-7.46-20.55-14.48-31.59-20.95-22.72-13.3-42.85-23.06-59.82-29l-3.04-1.06-77.74,78.19,49.04,28.72c3.3,1.94,6.61,3.99,9.89,6.13l-22.62,6.72c-10.56,3.14-17.3,13.51-18.98,16.41-41.42,63.75-42.03,65.25-42.25,65.82l9.32,4.21c1.44-2.63,25.62-39.99,41.65-64.66,2.62-4.49,7.65-10.32,13.18-11.96l70.95-21.06c.59-.18,1.05-.26,1.44-.26,2.82,0,5.12,2.29,5.12,5.12,0,2.02-1.16,3.3-1.48,3.6-.56,.38-13.45,9.14-25.45,17.29-10.48,7.12-20.29,13.77-20.66,14.03l5.82,8.42c.44-.3,10.17-6.91,20.58-13.98,.17-.12,.35-.23,.52-.35,10.64,10.05,21.03,21.41,31.12,34.01-29.16,11.16-66.29,16.79-66.86,16.88-8.41,1.57-15.68,6.7-20.01,14.07l-17.43,23.57,8.23,6.09,17.6-23.8,.33-.51c2.8-4.91,7.6-8.32,12.97-9.33,1.73-.26,41.11-6.23,71.71-18.55,8.83,11.64,17.41,24.23,25.7,37.74l3.37,5.49,88.13-87.09-1.71-3.34Zm-65.57-87.58c.79-1.94,2.64-3.19,4.72-3.19,2.82,0,5.12,2.29,5.12,5.12,0,.34-.03,.67-.1,1l-2.58,13.03c-3.32-2.88-6.73-5.71-10.21-8.49l3.05-7.47Zm-72.04,47.99c-1.39,0-2.81,.22-4.35,.68l-11.11,3.3c-10.15-7.98-20.76-15.24-31.6-21.59l-.18-.11c1.23-3.34,1.51-6.74,.81-10.04-.54-2.55-1.9-5.93-5.17-9.26l15.69-15.91c7.42,3.21,15.67,1.92,21.98-3.43,44.92,22.1,80.33,49.3,105.35,80.92-2.69,3.52-4.28,7.93-4.4,12.51-.11,4.26,1.03,8.33,3.21,11.71l-20.22,19.98c-7.21-3.81-14.87-2.61-21.35,2.25-12.24-16.42-25.11-31.28-38.38-44.34,3.23-2.93,5.09-7.02,5.09-11.33,0-8.47-6.89-15.35-15.35-15.35Zm53.15,113.71c-18.73-29.69-38.88-54.95-60.02-75.24,3.11-2.11,6.05-4.11,8.58-5.83,14.59,14.18,28.73,30.64,42.07,49.03l3.75,5.17,4.23-4.79c2.83-3.2,7.81-7.54,13.93-3.97l5.95,3.48,33.12-32.73-4.21-3.62c-2.17-1.87-3.37-4.73-3.29-7.86,.09-3.33,1.61-6.45,4.07-8.35l4.02-3.1-3.07-4.04c-26.71-35.18-65.41-65.13-115.01-89.02l-3.57-1.72-2.56,3.03c-4.11,4.89-10.03,5.82-15.08,2.36l-3.53-2.41-29.81,30.22,5.34,3.4c3.15,2,5,4.24,5.52,6.65,.58,2.72-.66,5.35-1.8,7.07l-2.81,4.25,4.24,2.83s4.58,2.7,4.58,2.7c8.39,4.91,16.65,10.39,24.65,16.35l-12.42,3.69c-5.72-4.01-11.56-7.78-17.4-11.21l-37.64-22.04,63.86-64.22c15.72,5.8,34.2,14.9,55,27.08,45.52,26.66,82.83,62.98,102.94,100.08l-73.62,72.74Z"/><circle class="cls-2" cx="201.69" cy="157.47" r="10.24" transform="translate(-22.62 34.34) rotate(-9.22)"/></g></g></g></svg>