<?xml version="1.0" encoding="UTF-8"?><svg id="Layer_2" xmlns="http://www.w3.org/2000/svg" viewBox="0 0 329.13 380.09"><defs><style>.cls-1{fill:#fff;}.cls-2{fill:#218fb8;}</style></defs><g id="Layer_1-2"><g><polygon class="cls-2" points="329.05 94.71 164.43 0 164.38 0 0 94.88 0 284.84 164.76 380.09 329.13 284.46 329.05 94.71"/><polygon class="cls-2" points="157.41 255.91 156.96 259.13 160.26 258.66 157.41 255.91"/><path class="cls-1" d="M244.26,208.69c4.52,0,8.52,.9,12,2.69,3.48,1.79,6.22,4.3,8.23,7.53,2.01,3.23,3.01,7.07,3.01,11.51,0,5.45-1.17,9.85-3.5,13.18-2.33,3.34-5.53,5.74-9.58,7.21-4.05,1.47-8.7,2.24-13.94,2.31l-.32,12.59h-5.49l-.32-17.22h2.37c3.16,0,6.17-.21,9.04-.65,2.87-.43,5.43-1.27,7.69-2.53,2.26-1.25,4.05-3.08,5.38-5.49,1.33-2.4,1.99-5.54,1.99-9.42,0-3.37-.68-6.24-2.04-8.61-1.36-2.37-3.28-4.18-5.76-5.43-2.47-1.25-5.4-1.88-8.77-1.88-5.17,0-9.27,1.34-12.32,4.04-3.05,2.69-4.57,6.44-4.57,11.25h-6.03c-.07-4.38,.88-8.14,2.85-11.3,1.97-3.16,4.68-5.58,8.12-7.26,3.44-1.68,7.43-2.53,11.95-2.53Zm-6.46,76.52c-1.36,0-2.49-.47-3.39-1.4-.9-.93-1.34-2.08-1.34-3.44s.45-2.51,1.34-3.44c.9-.93,2.03-1.4,3.39-1.4s2.49,.47,3.39,1.4c.9,.93,1.35,2.08,1.35,3.44s-.45,2.51-1.35,3.44c-.9,.93-2.03,1.4-3.39,1.4Z"/><path class="cls-1" d="M86.58,164.02c6.52,0,12.3,1.32,17.34,3.94,5.05,2.63,9.01,6.28,11.91,10.96,2.89,4.68,4.34,10.17,4.34,16.48,0,8.31-1.76,14.93-5.28,19.87-3.52,4.94-8.31,8.49-14.35,10.64-6.05,2.16-13.06,3.23-21.05,3.23l-.32,20.97h-5.05l-.32-25.54h2.84c4.73,0,9.3-.34,13.72-1.02,4.42-.68,8.41-2.02,11.98-4.02,3.57-2,6.41-4.94,8.51-8.83,2.1-3.89,3.15-8.99,3.15-15.3,0-5.36-1.16-9.99-3.47-13.88-2.31-3.89-5.52-6.88-9.62-8.99-4.1-2.1-8.88-3.15-14.35-3.15-8.31,0-14.93,2.23-19.87,6.7-4.94,4.47-7.41,10.54-7.41,18.21h-5.68c0-6.41,1.44-11.88,4.34-16.4,2.89-4.52,6.83-7.96,11.83-10.33,4.99-2.37,10.59-3.55,16.79-3.55Zm-9.46,111.96c-1.47,0-2.68-.5-3.63-1.5-.95-1-1.42-2.23-1.42-3.71s.47-2.71,1.42-3.71c.95-1,2.15-1.5,3.63-1.5,1.36,0,2.55,.5,3.55,1.5,1,1,1.5,2.24,1.5,3.71s-.5,2.71-1.5,3.71-2.18,1.5-3.55,1.5Z"/><g><path class="cls-2" d="M160.45,295.15c-5.73,0-10.41-1.86-14.32-5.68-3.9-3.8-5.79-8.42-5.79-14.12s1.89-10.01,5.79-13.82c3.91-3.82,8.59-5.68,14.32-5.68s10.03,1.85,13.84,5.66c3.81,3.81,5.66,8.34,5.66,13.84s-1.85,10.34-5.66,14.15c-3.81,3.81-8.34,5.66-13.84,5.66Zm-11.76-67.9c-1.32,0-2.39-1.03-2.43-2.36l-1.02-32.47c-.06-1.99,.67-3.87,2.05-5.3,1.39-1.43,3.25-2.22,5.24-2.22,8.65,0,16.63-.52,23.73-1.55,7.3-1.06,13.77-3,19.21-5.78,5.68-2.89,10.15-7.14,13.28-12.62,3.09-5.42,4.66-12.22,4.66-20.23-.22-7.57-1.54-14.01-3.93-19.23-2.5-5.45-6.47-9.71-11.79-12.66-5.21-2.88-11.7-4.34-19.28-4.34-11.28,0-20.42,3.08-27.15,9.15-5.3,4.78-8.59,11.13-9.78,18.86-.35,2.29-2.28,3.96-4.59,3.96h-18.7c-1.32,0-2.54-.54-3.43-1.52-.91-1-1.33-2.29-1.2-3.64,.82-8.41,3.24-16.04,7.18-22.68,5.17-8.71,12.71-15.76,22.42-20.95,9.76-5.22,21.52-7.86,34.96-7.86s24.95,2.46,34.74,7.3c9.68,4.8,17.41,11.79,22.97,20.8,5.56,9.01,8.38,20.06,8.38,32.82s-3,24.41-8.9,32.99c-5.93,8.6-14.03,15.05-24.08,19.16-10.24,4.19-22.09,6.32-35.24,6.32-1.62,0-2.95,1.27-3.03,2.88l-.96,18.87c-.07,1.29-1.13,2.31-2.43,2.31h-20.87Z"/><path class="cls-1" d="M178.11,86.84c12.79,0,24.03,2.35,33.39,6.98,9.17,4.54,16.48,11.16,21.74,19.67,5.26,8.53,7.93,19.04,7.93,31.22s-2.82,23.21-8.37,31.27c-5.67,8.22-13.1,14.13-22.73,18.08-9.87,4.04-21.33,6.09-34.09,6.09-3.23,0-5.9,2.53-6.06,5.76l-.93,18.29h-19.71l-1-31.89c-.04-1.16,.39-2.26,1.2-3.1s1.9-1.3,3.06-1.3c8.8,0,16.93-.53,24.16-1.59,7.63-1.1,14.41-3.15,20.16-6.08,6.22-3.17,11.11-7.82,14.54-13.82,3.36-5.88,5.06-13.19,5.06-21.74,0-.06,0-.12,0-.17-.23-7.89-1.64-14.73-4.2-20.32-2.78-6.05-7.18-10.77-13.09-14.05-5.67-3.13-12.65-4.72-20.75-4.72-12.05,0-21.87,3.34-29.18,9.94-5.84,5.26-9.45,12.21-10.75,20.65-.12,.8-.79,1.38-1.59,1.38h-18.7c-.58,0-.97-.29-1.18-.52-.19-.21-.49-.65-.43-1.31,.78-7.96,3.05-15.17,6.77-21.43,4.88-8.23,12.03-14.9,21.24-19.82,9.31-4.98,20.59-7.5,33.53-7.5m-17.66,172.04c4.66,0,8.48,1.56,11.69,4.77,3.21,3.21,4.77,7.04,4.77,11.7s-1.56,8.79-4.77,12c-3.21,3.21-7.04,4.77-11.7,4.77-4.9,0-8.89-1.57-12.2-4.82-3.28-3.2-4.87-7.11-4.87-11.95s1.59-8.44,4.87-11.65c3.32-3.24,7.31-4.82,12.2-4.82m17.66-178.11c-14.01,0-26.14,2.74-36.39,8.22-10.25,5.48-18.12,12.84-23.6,22.08-4.19,7.06-6.72,15.04-7.59,23.94-.44,4.54,3.09,8.49,7.65,8.49h18.7c3.8,0,7.02-2.78,7.59-6.53,1.08-7.06,4.02-12.74,8.81-17.07,6.19-5.58,14.56-8.37,25.12-8.37,7.1,0,13.04,1.32,17.81,3.96,4.77,2.64,8.27,6.39,10.51,11.27,2.23,4.87,3.45,10.86,3.65,17.97,0,7.51-1.42,13.75-4.26,18.73-2.84,4.98-6.85,8.78-12.03,11.42-5.18,2.64-11.27,4.47-18.27,5.48-7,1.02-14.77,1.52-23.29,1.52-5.83,0-10.51,4.82-10.32,10.65l1.02,32.47c.09,2.95,2.51,5.29,5.46,5.29h20.87c2.91,0,5.31-2.28,5.46-5.19l.96-18.87c13.6,0,25.73-2.18,36.39-6.55,10.66-4.36,19.13-11.11,25.43-20.25,6.29-9.13,9.44-20.71,9.44-34.71s-2.95-24.86-8.83-34.41c-5.89-9.54-13.96-16.85-24.21-21.92-10.25-5.07-22.28-7.61-36.08-7.61h0Zm-17.66,172.04c-6.5,0-11.98,2.18-16.44,6.55-4.47,4.37-6.7,9.7-6.7,15.99s2.23,11.93,6.7,16.29c4.46,4.37,9.94,6.55,16.44,6.55s11.62-2.18,15.99-6.55c4.36-4.36,6.55-9.79,6.55-16.29s-2.18-11.62-6.55-15.99c-4.37-4.36-9.7-6.55-15.99-6.55h0Z"/></g></g></g></svg>