<?xml version="1.0" encoding="UTF-8"?><svg id="Layer_2" xmlns="http://www.w3.org/2000/svg" viewBox="0 0 329.13 380.09"><defs><style>.cls-1{fill:none;}.cls-2{fill:#fff;}.cls-3{fill:#218fb8;}</style></defs><g id="Layer_1-2"><g><polygon class="cls-3" points="329.05 94.71 164.43 0 164.38 0 0 94.88 0 284.84 164.76 380.09 329.13 284.46 329.05 94.71"/><g><g><path class="cls-2" d="M185.36,234.96c-.13,0-.26-.01-.39-.04l-16.72-3.39c-.72-.14-1.29-.67-1.5-1.37-.21-.7-.02-1.46,.5-1.97l97.43-97.43c.37-.37,.88-.58,1.4-.58h0c.53,0,1.03,.21,1.4,.58l10.05,10.06c.77,.77,.77,2.03,0,2.8l-90.76,90.76c-.38,.38-.88,.58-1.4,.58Zm-12.71-6.58l12.06,2.44,88.61-88.61-7.25-7.25-93.42,93.41Z"/><path class="cls-2" d="M188.75,251.68c-.19,0-.38-.03-.57-.08-.7-.21-1.23-.79-1.37-1.51l-3.39-16.72c-.13-.65,.07-1.33,.54-1.8l90.76-90.76c.77-.77,2.03-.77,2.8,0l10.06,10.05c.37,.37,.58,.88,.58,1.4s-.21,1.03-.58,1.4l-97.43,97.43c-.38,.38-.88,.58-1.4,.58Zm-1.24-18.06l2.44,12.06,93.41-93.42-7.25-7.25-88.61,88.61Z"/><path class="cls-2" d="M286.07,154.15c-.53,0-1.03-.21-1.4-.58l-20.01-20.01c-.77-.77-.77-2.03,0-2.8l5.09-5.09c.74-.74,2.06-.74,2.8,0l20.01,20.01c.77,.77,.77,2.03,0,2.8l-5.09,5.09c-.37,.37-.88,.58-1.4,.58Zm-17.2-21.99l17.2,17.2,2.29-2.29-17.2-17.2-2.28,2.28Z"/><path class="cls-2" d="M291.16,149.06c-.51,0-1.01-.19-1.4-.58l-20.01-20.01c-.77-.77-.77-2.03,0-2.8l4.56-4.56c1.46-1.45,3.41-2.26,5.49-2.26s4.14,.83,5.65,2.35l11.58,11.58c3.09,3.09,3.14,8.09,.09,11.14l-4.57,4.56c-.39,.39-.89,.58-1.4,.58Zm-17.2-21.99l17.2,17.2,3.16-3.16c1.5-1.5,1.46-3.98-.09-5.53l-11.58-11.58c-1.49-1.49-4.09-1.53-5.54-.09l-3.16,3.16Z"/><g><polygon class="cls-1" points="170.41 232.05 168.93 242.41 176.25 249.49 186.39 248.04 183.68 234.67 170.41 232.05"/><polygon class="cls-1" points="171.28 250.2 169.35 248.33 168.24 247.26 167.75 250.7 171.28 250.2"/><path class="cls-2" d="M174.2,253.01l-4.85-4.68,1.93,1.86-3.53,.5,.49-3.44-2.79-2.7c-.46-.44-.68-1.08-.59-1.71l-1.41,9.9c-.09,.62,.12,1.24,.56,1.68,.37,.37,.88,.58,1.4,.58,.09,0,.19,0,.28-.02l10.16-1.45c-.09,.01-.19,.02-.28,.02-.51,0-1-.2-1.38-.56Z"/><path class="cls-2" d="M190.69,249.31l-3.39-16.72c-.16-.78-.77-1.4-1.56-1.55l-16.61-3.28c-.53-.1-1.09,.01-1.53,.33-.44,.32-.74,.8-.82,1.34l-1.92,13.44s0,0,0,0h0c.11-.74,.62-1.35,1.32-1.6,.7-.24,1.48-.07,2.02,.45l8.75,8.45c.54,.53,.74,1.32,.51,2.04-.23,.72-.86,1.25-1.61,1.35l13.18-1.88c.54-.08,1.02-.37,1.34-.82,.31-.45,.43-1,.32-1.54Zm-14.44,.18l-7.32-7.07,1.48-10.37,13.27,2.62,2.71,13.37-10.14,1.45Z"/><polygon class="cls-2" points="168.24 247.26 168.24 247.26 169.35 248.33 168.24 247.26"/><path class="cls-2" d="M177.46,252.2c.23-.72,.04-1.51-.51-2.04l-8.75-8.45c-.54-.52-1.32-.69-2.02-.45-.7,.24-1.21,.86-1.32,1.6h0c-.09,.63,.13,1.26,.59,1.71l2.79,2.7h0s1.11,1.07,1.11,1.07l4.85,4.68c.37,.36,.87,.56,1.38,.56,.09,0,.19,0,.28-.02,.75-.11,1.37-.63,1.61-1.35Z"/></g><rect class="cls-2" x="166.56" y="185.62" width="128.36" height="3.97" transform="translate(-65.07 218.11) rotate(-45)"/></g><path class="cls-2" d="M187.85,312.3h0c-.84,0-1.64-.4-2.14-1.08l-13.33-17.9H74.46c-8.4,0-15.24-6.84-15.24-15.24V113.49c0-8.4,6.84-15.24,15.24-15.24H222.88c8.4,0,15.24,6.84,15.24,15.24v38.02c0,1.48-1.2,2.68-2.68,2.68s-2.68-1.2-2.68-2.68v-38.02c0-5.45-4.44-9.89-9.89-9.89H74.46c-5.45,0-9.89,4.43-9.89,9.89v164.6c0,5.45,4.43,9.89,9.89,9.89h99.27c.85,0,1.64,.4,2.15,1.08l11.99,16.11,12.1-16.12c.51-.67,1.3-1.07,2.14-1.07h20.77c5.45,0,9.89-4.44,9.89-9.89v-60.03c0-1.48,1.2-2.68,2.68-2.68s2.68,1.2,2.68,2.68v60.03c0,8.4-6.84,15.24-15.24,15.24h-19.43l-13.45,17.91c-.51,.67-1.3,1.07-2.14,1.07Z"/><path class="cls-2" d="M202.11,137.51h-33.77c-1.48,0-2.68-1.2-2.68-2.68s1.2-2.68,2.68-2.68h33.77c1.48,0,2.68,1.2,2.68,2.68s-1.2,2.68-2.68,2.68Z"/><path class="cls-2" d="M158.62,137.51H91.25c-1.48,0-2.68-1.2-2.68-2.68s1.2-2.68,2.68-2.68h67.38c1.48,0,2.68,1.2,2.68,2.68s-1.2,2.68-2.68,2.68Z"/><path class="cls-2" d="M202.11,169.41h-55.43c-1.48,0-2.68-1.2-2.68-2.68s1.2-2.68,2.68-2.68h55.43c1.48,0,2.68,1.2,2.68,2.68s-1.2,2.68-2.68,2.68Z"/><path class="cls-2" d="M136.48,169.41h-45.23c-1.48,0-2.68-1.2-2.68-2.68s1.2-2.68,2.68-2.68h45.23c1.48,0,2.68,1.2,2.68,2.68s-1.2,2.68-2.68,2.68Z"/><path class="cls-2" d="M177.53,201.32h-59.05c-1.48,0-2.68-1.2-2.68-2.68s1.2-2.68,2.68-2.68h59.05c1.48,0,2.68,1.2,2.68,2.68s-1.2,2.68-2.68,2.68Z"/><path class="cls-2" d="M108.3,201.32h-17.05c-1.48,0-2.68-1.2-2.68-2.68s1.2-2.68,2.68-2.68h17.05c1.48,0,2.68,1.2,2.68,2.68s-1.2,2.68-2.68,2.68Z"/><path class="cls-2" d="M145.73,233.23h-9.25c-1.48,0-2.68-1.2-2.68-2.68s1.2-2.68,2.68-2.68h9.25c1.48,0,2.68,1.2,2.68,2.68s-1.2,2.68-2.68,2.68Z"/><path class="cls-2" d="M126.6,233.23h-35.36c-1.48,0-2.68-1.2-2.68-2.68s1.2-2.68,2.68-2.68h35.36c1.48,0,2.68,1.2,2.68,2.68s-1.2,2.68-2.68,2.68Z"/><path class="cls-2" d="M146.68,265.13h-55.43c-1.48,0-2.68-1.2-2.68-2.68s1.2-2.68,2.68-2.68h55.43c1.48,0,2.68,1.2,2.68,2.68s-1.2,2.68-2.68,2.68Z"/></g><polygon class="cls-3" points="157.41 255.91 156.96 259.13 160.26 258.66 157.41 255.91"/></g></g></svg>