<?xml version="1.0" encoding="UTF-8"?><svg id="Layer_2" xmlns="http://www.w3.org/2000/svg" viewBox="0 0 329.13 380.09"><defs><style>.cls-1{fill:#fff;}.cls-2{fill:#218fb8;}</style></defs><g id="Layer_1-2"><g><polygon class="cls-2" points="329.05 94.71 164.43 0 164.38 0 0 94.88 0 284.84 164.76 380.09 329.13 284.46 329.05 94.71"/><g><path class="cls-1" d="M174.43,252.23c-.34,0-.69-.09-1-.27l-16.79-9.65c-.62-.36-1-1.02-1-1.73v-19.35c0-.71,.38-1.37,1-1.73s1.38-.36,2,0l16.78,9.66c.62,.36,1,1.02,1,1.73v19.34c0,.71-.37,1.37-.99,1.73-.31,.18-.66,.27-1,.27Zm-14.79-12.81l12.79,7.35v-14.73s-12.79-7.35-12.79-7.35v14.73Z"/><path class="cls-1" d="M140.87,252.26c-.34,0-.69-.09-1-.27-.62-.36-1-1.02-1-1.73v-19.37c0-.71,.38-1.38,1-1.73l16.76-9.67c.62-.36,1.38-.36,2,0s1,1.02,1,1.73v19.35c0,.71-.38,1.38-.99,1.73l-16.76,9.69c-.31,.18-.66,.27-1,.27Zm2-20.21v14.75l12.76-7.38v-14.73s-12.76,7.36-12.76,7.36Z"/><path class="cls-1" d="M157.67,261.98c-.35,0-.69-.09-1-.27l-16.8-9.71c-.62-.36-1-1.02-1-1.73s.38-1.37,1-1.73l16.76-9.69c.62-.36,1.38-.36,2,0l16.79,9.65c.62,.36,1,1.01,1,1.73,0,.71-.38,1.38-.99,1.73l-16.76,9.75c-.31,.18-.66,.27-1.01,.27Zm-12.8-11.71l12.8,7.4,12.76-7.43-12.79-7.35-12.77,7.38Z"/></g><g><path class="cls-1" d="M232.77,207.91c-.43,0-.86-.11-1.25-.33l-34.99-20.11c-.78-.45-1.25-1.27-1.25-2.17v-40.32c0-.89,.48-1.72,1.25-2.16,.77-.45,1.72-.45,2.5,0l34.97,20.12c.77,.45,1.25,1.27,1.25,2.17l.02,40.31c0,.89-.47,1.72-1.25,2.16-.39,.22-.82,.34-1.25,.34Zm-32.49-24.06l29.99,17.24v-34.55s-29.99-17.25-29.99-17.25v34.56Z"/><path class="cls-1" d="M162.85,207.99c-.43,0-.86-.11-1.25-.33-.77-.45-1.25-1.27-1.25-2.17v-40.36c0-.89,.48-1.72,1.25-2.17l34.92-20.16c.77-.45,1.73-.45,2.5,0,.77,.45,1.25,1.27,1.25,2.16v40.32c0,.89-.47,1.72-1.24,2.17l-34.93,20.19c-.39,.22-.82,.34-1.25,.34Zm2.5-41.42v34.58l29.93-17.3v-34.55s-29.93,17.27-29.93,17.27Z"/><path class="cls-1" d="M197.85,228.23c-.43,0-.86-.11-1.25-.34l-35-20.24c-.77-.45-1.25-1.27-1.25-2.16s.48-1.72,1.25-2.16l34.93-20.19c.77-.45,1.72-.45,2.5,0l34.99,20.11c.77,.45,1.25,1.27,1.25,2.16s-.47,1.72-1.24,2.17l-34.92,20.32c-.39,.23-.82,.34-1.26,.34Zm-30.01-22.74l30.01,17.35,29.93-17.41-29.99-17.24-29.94,17.31Z"/></g><g><path class="cls-1" d="M145.88,209.62c-.43,0-.86-.11-1.25-.33l-25.39-14.59c-.78-.45-1.25-1.27-1.25-2.17v-29.26c0-.89,.48-1.72,1.25-2.16,.77-.45,1.72-.45,2.5,0l25.38,14.6c.77,.45,1.25,1.27,1.25,2.17v29.25c.01,.89-.46,1.72-1.23,2.16-.39,.22-.82,.34-1.25,.34Zm-22.89-18.54l20.39,11.72v-23.48s-20.39-11.72-20.39-11.72v23.49Z"/><path class="cls-1" d="M95.15,209.68c-.43,0-.86-.11-1.25-.33-.77-.45-1.25-1.27-1.25-2.17v-29.28c0-.89,.48-1.72,1.25-2.17l25.34-14.62c.77-.45,1.73-.45,2.5,0,.77,.45,1.25,1.27,1.25,2.16v29.26c0,.89-.47,1.72-1.24,2.17l-25.35,14.65c-.39,.22-.82,.34-1.25,.34Zm2.5-30.34v23.51l20.35-11.76v-23.49s-20.35,11.74-20.35,11.74Z"/><path class="cls-1" d="M120.54,224.36c-.43,0-.86-.11-1.25-.34l-25.4-14.68c-.77-.45-1.25-1.27-1.25-2.16s.48-1.72,1.25-2.16l25.35-14.65c.77-.45,1.72-.45,2.5,0l25.39,14.59c.77,.45,1.25,1.27,1.25,2.16s-.47,1.72-1.24,2.17l-25.34,14.74c-.39,.23-.82,.34-1.26,.34Zm-20.4-17.18l20.4,11.79,20.35-11.84-20.39-11.72-20.36,11.76Z"/></g><g><g><path class="cls-1" d="M242.95,293.29H86.18c-4.46,0-8.08-3.62-8.08-8.08V103.5c0-4.46,3.62-8.08,8.08-8.08h21.48c1.38,0,2.5,1.12,2.5,2.5v9.77c0,.93,.75,1.69,1.68,1.69h104.24c.93,0,1.68-.76,1.68-1.69v-9.77c0-1.38,1.12-2.5,2.5-2.5h22.69c4.46,0,8.08,3.62,8.08,8.08v181.71c0,4.46-3.62,8.08-8.08,8.08ZM86.18,100.42c-1.7,0-3.08,1.38-3.08,3.08v181.71c0,1.7,1.38,3.08,3.08,3.08H242.95c1.7,0,3.08-1.38,3.08-3.08V103.5c0-1.7-1.38-3.08-3.08-3.08h-20.19v7.27c0,3.69-3,6.69-6.68,6.69H111.84c-3.68,0-6.68-3-6.68-6.69v-7.27h-18.98Z"/><path class="cls-1" d="M216.08,114.38H111.84c-3.68,0-6.68-3-6.68-6.69v-19.65c0-3.68,3-6.68,6.68-6.68h29.05c.61-12.22,10.75-21.97,23.12-21.97s22.5,9.75,23.11,21.97h28.96c3.68,0,6.68,3,6.68,6.68v19.65c0,3.69-3,6.69-6.68,6.69Zm-104.24-28.02c-.93,0-1.68,.75-1.68,1.68v19.65c0,.93,.75,1.69,1.68,1.69h104.24c.93,0,1.68-.76,1.68-1.69v-19.65c0-.93-.75-1.68-1.68-1.68h-31.48c-.7,0-1.37-.3-1.85-.81s-.71-1.21-.64-1.91c.03-.37,.04-.73,.04-1.1,0-10-8.14-18.14-18.14-18.14s-18.15,8.14-18.15,18.14c0,.37,0,.74,.04,1.1,.06,.7-.17,1.39-.64,1.91s-1.14,.81-1.85,.81h-31.57Z"/></g><path class="cls-1" d="M163.96,88.54h0c-3.98,0-7.22-3.24-7.22-7.21s3.24-7.22,7.22-7.22,7.22,3.24,7.22,7.22-3.24,7.21-7.21,7.21Zm0-9.43c-1.22,0-2.22,.99-2.22,2.22s.99,2.21,2.22,2.21,2.22-.99,2.22-2.21-.99-2.22-2.21-2.22Z"/></g><g><circle class="cls-2" cx="232.78" cy="275.5" r="32.58"/><path class="cls-1" d="M232.77,310.58c-19.34,0-35.08-15.73-35.08-35.08s15.73-35.08,35.08-35.08,35.08,15.73,35.08,35.08-15.74,35.08-35.08,35.08Zm0-65.15c-16.58,0-30.08,13.49-30.08,30.08s13.49,30.08,30.08,30.08,30.08-13.49,30.08-30.08-13.49-30.08-30.08-30.08Z"/></g><path class="cls-1" d="M230.29,293.29c-.66,0-1.3-.26-1.77-.73l-15.01-15.01c-.98-.98-.98-2.56,0-3.54s2.56-.98,3.54,0l13.12,13.12,21.16-24.19c.91-1.04,2.49-1.15,3.53-.24,1.04,.91,1.14,2.49,.24,3.53l-22.92,26.2c-.46,.52-1.11,.83-1.8,.85-.03,0-.06,0-.08,0Z"/></g></g></svg>