<?xml version="1.0" encoding="UTF-8"?><svg id="Layer_2" xmlns="http://www.w3.org/2000/svg" viewBox="0 0 329.13 380.09"><defs><style>.cls-1{fill:#fff;}.cls-2{fill:#218fb8;}</style></defs><g id="Layer_1-2"><g><polygon class="cls-2" points="329.05 94.71 164.43 0 164.38 0 0 94.88 0 284.84 164.76 380.09 329.13 284.46 329.05 94.71"/><path class="cls-1" d="M201.7,237.86c-1.69-.49-3.46,.48-3.96,2.17-4.43,15.21-3.28,29.85-2.2,37.24,.3,2.02-.63,4.03-2.3,5-15.99,9.22-52.14,9.14-67.85-.14-1.78-1.05-2.88-3.07-2.88-5.26v-23.99c0-3.45-2.55-7.14-9.72-7.14-.53,0-.9,.03-.92,.03-.15,0-1.03,.04-2.39,.04-13.55,0-23.2-2.81-23.99-6.97-1.93-10.17,.29-31.06,.32-31.27,.15-1.44-.67-2.8-2.02-3.32-.09-.03-8.54-3.33-15.52-7.37-1.42-.82-2.26-1.75-2.49-2.75-.3-1.3,.42-2.75,.78-3.29,17.51-27.34,18.74-35.33,18.79-36.45,6.91-58.81,54.28-63.38,68.63-63.38,1.38,0,2.58,.03,3.51,.06,.64,.02,1.16,.03,1.54,.03,4.09,0,18.57,.46,33.28,6.39,1.64,.65,3.5-.14,4.16-1.77,.66-1.63-.13-3.5-1.76-4.16-15.78-6.36-31.29-6.85-35.67-6.85-.34,0-.81-.01-1.37-.03-.97-.03-2.23-.06-3.67-.06-15.69,0-67.46,4.98-74.99,69.11-.04,.3-1.12,7.61-17.73,33.55-.27,.39-2.66,3.92-1.73,8.18,.43,1.95,1.73,4.74,5.54,6.94,5.22,3.03,11.04,5.59,14.15,6.88-.55,6.01-1.72,21.71,0,30.75,2.02,10.58,19.83,12.17,30.27,12.17,1.67,0,2.7-.05,2.81-.05,.04,0,.23-.02,.5-.02,2.06,0,3.17,.49,3.33,.75v23.99c0,4.44,2.31,8.56,6.02,10.76,8.84,5.22,23.07,7.83,37.31,7.83s28.12-2.55,36.98-7.66c3.92-2.26,6.11-6.87,5.43-11.47-1.01-6.87-2.08-20.48,2.01-34.52,.5-1.69-.48-3.47-2.17-3.96Z"/><path class="cls-1" d="M201.15,217.77h0c-2.26,0-4.1-1.84-4.1-4.1v-16.4c0-8.4-9.46-17.46-21.54-20.63l2.08-7.93c16.03,4.21,27.66,16.22,27.66,28.56v16.4c0,2.26-1.84,4.1-4.1,4.1Z"/><path class="cls-1" d="M201.15,205.47h-4.1v-4.1c0-24.31,13.51-53.3,77.89-53.3h5.25l-1.28,5.09c-8.68,34.71-34.84,52.3-77.77,52.3Zm68.34-49.12c-40.52,1.11-62.05,14.84-64.08,40.86,34.45-1.01,55.49-14.41,64.08-40.86Z"/><path class="cls-1" d="M176.74,176.77h3.38v-3.38c0-20.06-11.15-43.98-64.28-43.98h-4.33l1.05,4.2c7.16,28.64,28.75,43.16,64.18,43.16Zm-56.39-40.54c33.44,.92,51.2,12.25,52.88,33.72-28.43-.83-45.79-11.89-52.88-33.72Z"/><path class="cls-1" d="M199.11,163.83c-2.3,.69-4.71-.73-5.19-3.07-.88-4.27-.97-7.5-.97-8.58,0-21.46,15.03-33.82,18.04-36.08l2.46-1.85,2.46,1.85c3.01,2.26,18.04,14.62,18.04,36.08,0,1.15-.09,4.28-.94,8.43l-8.03-1.63c.71-3.52,.77-6.09,.77-6.8,0-13.96-8.03-23.38-12.3-27.41-4.27,4.03-12.3,13.45-12.3,27.41,0,.62,.05,3.26,.79,6.88,.43,2.09-.79,4.17-2.83,4.78h0Z"/></g></g></svg>