<?xml version="1.0" encoding="UTF-8"?><svg id="Layer_2" xmlns="http://www.w3.org/2000/svg" viewBox="0 0 329.13 380.09"><defs><style>.cls-1{fill:#fff;}.cls-2{fill:#218fb8;}</style></defs><g id="Layer_1-2"><g><polygon class="cls-2" points="329.05 94.71 164.43 0 164.38 0 0 94.88 0 284.84 164.76 380.09 329.13 284.46 329.05 94.71"/><g><path class="cls-1" d="M172.06,293.33c-15.07,.5-29.44-2.18-37.45-6.91-1.78-1.05-2.88-3.06-2.88-5.25v-23.99c0-3.45-2.55-7.13-9.72-7.13-.54,0-.91,.03-.92,.03-.11,0-1,.04-2.39,.04-13.55,0-23.2-2.8-23.99-6.97-1.93-10.17,.29-31.05,.31-31.27,.16-1.43-.67-2.8-2.02-3.32-.08-.03-8.54-3.33-15.52-7.37-1.42-.82-2.26-1.75-2.49-2.74-.3-1.3,.42-2.75,.78-3.29,17.51-27.33,18.73-35.33,18.78-36.44,6.91-58.81,54.28-63.38,68.63-63.38,1.38,0,2.58,.03,3.51,.06,.64,.02,1.16,.03,1.54,.03,2.61,0,9.61,.19,18.18,1.92,1.73,.36,3.41-.77,3.76-2.5,.35-1.73-.77-3.42-2.5-3.77-9.14-1.84-16.64-2.05-19.45-2.05-.34,0-.8-.01-1.37-.03-.97-.03-2.23-.06-3.67-.06-15.69,0-67.45,4.98-74.98,69.1-.04,.3-1.12,7.61-17.73,33.54-.27,.39-2.66,3.93-1.73,8.18,.42,1.95,1.73,4.74,5.54,6.94,5.22,3.02,11.04,5.59,14.15,6.88-.54,6.01-1.72,21.7,0,30.74,2.02,10.59,19.83,12.17,30.27,12.17,1.68,0,2.7-.05,2.78-.06,.04,0,.24,0,.53,0,2.06,0,3.17,.49,3.33,.74v23.99c0,4.44,2.31,8.56,6.02,10.76,8.45,4.98,22.16,7.85,37.2,7.85,1.23,0,2.46-.02,3.71-.06,1.76-.06,3.15-1.53,3.09-3.29-.06-1.76-1.52-3.07-3.29-3.09Z"/><path class="cls-1" d="M235.85,209.56V111.87c0-.85-.34-1.66-.94-2.26l-19.74-19.74c-1.25-1.25-3.27-1.25-4.52,0l-18.62,18.62c-1.25,1.25-1.25,3.27,0,4.52l8.89,8.9c.39,.39,.45,.84,.45,1.08s-.06,.69-.45,1.07l-9.31,9.31c-1.25,1.25-1.25,3.27,0,4.52l8.89,8.89c.39,.39,.45,.84,.45,1.08s-.06,.69-.45,1.07l-8.9,8.91c-.71,.7-1.04,1.7-.9,2.69,.09,.72,.43,1.37,.94,1.87l8.86,8.85c.39,.39,.45,.85,.45,1.08s-.06,.69-.45,1.08l-11.26,11.26c-.6,.6-.94,1.41-.94,2.26v22.65c-15.15,8.58-24.48,24.48-24.48,41.96,0,26.61,21.64,48.25,48.25,48.25s48.25-21.64,48.25-48.25c0-17.48-9.33-33.38-24.49-41.96Zm-23.77,83.83c-23.08,0-41.86-18.78-41.86-41.86,0-15.74,8.72-30,22.75-37.22,1.06-.55,1.74-1.64,1.74-2.84v-23.23l10.33-10.32c1.49-1.49,2.32-3.48,2.32-5.59s-.82-4.1-2.32-5.6l-6.64-6.64,6.64-6.64c1.49-1.49,2.32-3.48,2.32-5.59s-.82-4.1-2.32-5.59l-6.63-6.64,7.05-7.05c1.49-1.49,2.32-3.48,2.32-5.59s-.82-4.11-2.32-5.59l-6.63-6.64,14.1-14.1,16.54,16.54v98.27c0,1.2,.67,2.29,1.73,2.84,14.04,7.22,22.75,21.48,22.75,37.22,0,23.08-18.78,41.86-41.86,41.86Z"/><path class="cls-1" d="M222.71,230.83c-6.66-3.42-14.58-3.42-21.25,0-7.8,4.01-12.64,11.93-12.64,20.68,0,12.83,10.44,23.27,23.26,23.27s23.26-10.44,23.26-23.27c0-8.75-4.84-16.67-12.64-20.68Zm-10.62,37.56c-9.31,0-16.88-7.57-16.88-16.88,0-6.34,3.51-12.09,9.17-15,2.42-1.24,5.01-1.87,7.7-1.87s5.28,.63,7.7,1.87c5.66,2.91,9.18,8.66,9.18,15,0,9.31-7.57,16.88-16.88,16.88Z"/></g></g></g></svg>