<?xml version="1.0" encoding="UTF-8"?><svg id="Layer_2" xmlns="http://www.w3.org/2000/svg" viewBox="0 0 329.13 380.09"><defs><style>.cls-1{fill:#fff;}.cls-2{fill:#218fb8;}</style></defs><g id="Layer_1-2"><g><polygon class="cls-2" points="329.05 94.71 164.43 0 164.38 0 0 94.88 0 284.84 164.76 380.09 329.13 284.46 329.05 94.71"/><path class="cls-1" d="M117.46,206.46c-32.13,0-58.27-26.14-58.27-58.27s26.14-58.27,58.27-58.27c12.74,0,24.84,4.04,35,11.67,1.54,1.16,1.85,3.36,.69,4.9-1.16,1.55-3.36,1.86-4.9,.69-8.93-6.72-19.58-10.27-30.79-10.27-28.27,0-51.27,23-51.27,51.27s23,51.27,51.27,51.27c11.21,0,21.86-3.55,30.79-10.27,1.54-1.16,3.74-.85,4.9,.69,1.16,1.54,.85,3.74-.69,4.9-10.16,7.64-22.26,11.67-35,11.67Z"/><path class="cls-1" d="M250.42,289.65H100.45c-1.4,0-2.67-.83-3.22-2.12s-.28-2.78,.69-3.79l15.51-16.25c.56-.59,1.31-.96,2.11-1.06l38.55-4.67,24.87-22.17c.46-.41,1.02-.69,1.62-.82l37.39-7.73,12.91-34.83c.18-.49,.47-.93,.84-1.29l16.25-15.8c1.01-.98,2.51-1.26,3.8-.71,1.3,.55,2.14,1.82,2.14,3.22v104.53c0,1.93-1.57,3.5-3.5,3.5Zm-141.79-7H246.92v-92.74l-9.74,9.47-13.31,35.91c-.42,1.13-1.39,1.97-2.57,2.21l-38.37,7.94-24.98,22.28c-.53,.48-1.2,.78-1.91,.86l-38.4,4.65-9,9.43Z"/><path class="cls-1" d="M138.72,177.9c-.99,0-1.97-.42-2.67-1.23l-13.4-15.72c-2.54-2.98-3.6-6.9-2.93-10.75,.68-3.85,3.01-7.18,6.41-9.11l17.58-10.02c3.22-1.83,6.88-2.81,10.59-2.81h26.83c3.84,0,7.62,1.04,10.92,3l19.63,11.65c2.69,1.6,4.49,4.29,4.94,7.4,.44,3.1-.53,6.2-2.66,8.49l-14.09,15.11c-1.32,1.41-3.53,1.49-4.95,.17-1.41-1.32-1.49-3.53-.17-4.95l14.09-15.11c.68-.73,1-1.73,.85-2.72-.14-.99-.72-1.86-1.58-2.37l-19.63-11.65c-2.22-1.32-4.76-2.02-7.35-2.02h-26.83c-2.49,0-4.96,.65-7.12,1.89l-17.58,10.02c-1.58,.9-2.67,2.45-2.98,4.24-.31,1.79,.18,3.62,1.36,5l13.4,15.72c1.25,1.47,1.08,3.68-.4,4.93-.66,.56-1.47,.84-2.27,.84Z"/><path class="cls-1" d="M215.33,238.48c-.2,0-.4-.02-.6-.05-1.9-.33-3.18-2.14-2.85-4.05l6.88-39.72-33.85-11.78c-1.54-.54-2.51-2.06-2.33-3.68l3.41-31.39c.21-1.92,1.94-3.31,3.86-3.1,1.92,.21,3.31,1.94,3.1,3.86l-3.11,28.62,34.02,11.84c1.62,.56,2.59,2.21,2.3,3.9l-7.39,42.65c-.29,1.7-1.77,2.9-3.44,2.9Z"/><path class="cls-1" d="M136.3,270.21c-.23,0-.46-.02-.69-.07-1.9-.38-3.13-2.22-2.75-4.11l15.55-78.28-4.89-39.48c-.24-1.92,1.12-3.67,3.04-3.9,1.92-.23,3.67,1.12,3.9,3.04l4.96,40.04c.05,.37,.03,.75-.04,1.11l-15.66,78.83c-.33,1.67-1.79,2.82-3.43,2.82Z"/><path class="cls-1" d="M151.96,266.38c-.34,0-.68-.05-1.02-.15-1.85-.56-2.89-2.52-2.33-4.37l20.78-68.12c.54-1.77,2.36-2.81,4.16-2.38l34.34,8.19c1.79,.43,2.94,2.16,2.64,3.97l-5.68,34.46c-.31,1.91-2.12,3.2-4.02,2.88-1.91-.31-3.2-2.12-2.88-4.02l5.15-31.25-27.97-6.67-19.82,64.97c-.46,1.51-1.85,2.48-3.35,2.48Z"/><path class="cls-1" d="M168.4,122.54c-11.96,0-21.7-9.73-21.7-21.7s9.73-21.7,21.7-21.7,21.7,9.73,21.7,21.7-9.73,21.7-21.7,21.7Zm0-36.4c-8.1,0-14.7,6.59-14.7,14.7s6.59,14.7,14.7,14.7,14.7-6.59,14.7-14.7-6.59-14.7-14.7-14.7Z"/></g></g></svg>