<?xml version="1.0" encoding="UTF-8"?><svg id="Layer_2" xmlns="http://www.w3.org/2000/svg" viewBox="0 0 329.13 380.09"><defs><style>.cls-1{fill:#fff;}.cls-2{fill:#218fb8;}</style></defs><g id="Layer_1-2"><g><polygon class="cls-2" points="329.05 94.71 164.43 0 164.38 0 0 94.88 0 284.84 164.76 380.09 329.13 284.46 329.05 94.71"/><g><path class="cls-1" d="M225.79,98.13h-14.25c-1.69,0-3.31,.61-4.58,1.73l-13.87,12.22c-.21,.19-.48,.29-.76,.29h-25.02c-1.59,0-2.89,1.29-2.89,2.89s1.29,2.89,2.89,2.89h25.02c1.69,0,3.31-.61,4.58-1.73l13.87-12.22c.21-.19,.48-.29,.76-.29h14.25c1.59,0,2.89-1.29,2.89-2.89s-1.29-2.89-2.89-2.89Z"/><path class="cls-1" d="M219.63,133.14h-23.27c-.38,0-.73-.19-.95-.5l-11.49-16.72c-.9-1.31-2.7-1.65-4.01-.74-1.31,.9-1.65,2.7-.74,4.01l11.49,16.72c1.29,1.88,3.42,3,5.7,3h23.27c1.59,0,2.89-1.29,2.89-2.89s-1.29-2.89-2.89-2.89Z"/><path class="cls-1" d="M230.4,166.8h-10.83c-1.85,0-3.59,.72-4.89,2.03l-18.99,18.99c-.22,.22-.51,.34-.81,.34h-27.57c-1.59,0-2.89,1.29-2.89,2.89s1.29,2.89,2.89,2.89h27.57c1.85,0,3.59-.72,4.89-2.03l18.99-18.99c.22-.22,.51-.34,.81-.34h10.83c1.59,0,2.89-1.29,2.89-2.89s-1.29-2.89-2.89-2.89Z"/><path class="cls-1" d="M230.4,240.28h-12.75c-.31,0-.6-.12-.81-.34l-13.22-13.22c-1.31-1.31-3.05-2.03-4.89-2.03h-31.41c-1.59,0-2.89,1.29-2.89,2.89s1.29,2.89,2.89,2.89h31.41c.31,0,.6,.12,.81,.34l13.22,13.22c1.31,1.31,3.05,2.03,4.89,2.03h12.75c1.59,0,2.89-1.29,2.89-2.89s-1.29-2.89-2.89-2.89Z"/><path class="cls-1" d="M240.79,279.72h-14.49c-.31,0-.6-.12-.81-.34l-14.95-14.95c-1.31-1.31-3.05-2.03-4.89-2.03h-38.34c-1.59,0-2.89,1.29-2.89,2.89s1.29,2.89,2.89,2.89h38.34c.31,0,.6,.12,.81,.34l14.95,14.95c1.31,1.31,3.05,2.03,4.89,2.03h14.49c1.59,0,2.89-1.29,2.89-2.89s-1.29-2.89-2.89-2.89Z"/><path class="cls-1" d="M235.4,89.67c-5.83,0-10.58,4.75-10.58,10.58s4.75,10.58,10.58,10.58,10.58-4.75,10.58-10.58-4.75-10.58-10.58-10.58Zm0,15.39c-2.65,0-4.81-2.16-4.81-4.81s2.16-4.81,4.81-4.81,4.81,2.16,4.81,4.81-2.16,4.81-4.81,4.81Z"/><path class="cls-1" d="M227.71,123.91c-5.83,0-10.58,4.75-10.58,10.58s4.75,10.58,10.58,10.58,10.58-4.75,10.58-10.58-4.75-10.58-10.58-10.58Zm0,15.39c-2.65,0-4.81-2.16-4.81-4.81s2.16-4.81,4.81-4.81,4.81,2.16,4.81,4.81-2.16,4.81-4.81,4.81Z"/><path class="cls-1" d="M238.1,158.15c-5.83,0-10.58,4.75-10.58,10.58s4.75,10.58,10.58,10.58,10.58-4.75,10.58-10.58-4.75-10.58-10.58-10.58Zm0,15.39c-2.65,0-4.81-2.16-4.81-4.81s2.16-4.81,4.81-4.81,4.81,2.16,4.81,4.81-2.16,4.81-4.81,4.81Z"/><path class="cls-1" d="M238.1,231.24c-5.83,0-10.58,4.75-10.58,10.58s4.75,10.58,10.58,10.58,10.58-4.75,10.58-10.58-4.75-10.58-10.58-10.58Zm0,15.39c-2.65,0-4.81-2.16-4.81-4.81s2.16-4.81,4.81-4.81,4.81,2.16,4.81,4.81-2.16,4.81-4.81,4.81Z"/><path class="cls-1" d="M248.48,271.25c-5.83,0-10.58,4.75-10.58,10.58s4.75,10.58,10.58,10.58,10.58-4.75,10.58-10.58-4.75-10.58-10.58-10.58Zm0,15.39c-2.65,0-4.81-2.16-4.81-4.81s2.16-4.81,4.81-4.81,4.81,2.16,4.81,4.81-2.16,4.81-4.81,4.81Z"/><g><path class="cls-1" d="M135.98,167.44c-9.85,0-19.23-4.92-26.41-13.87-9.59-11.93-13.41-29.01-9.97-44.57,.42-1.89,2.28-3.07,4.17-2.66,1.89,.42,3.08,2.29,2.66,4.17-2.99,13.54,.3,28.36,8.59,38.68,5.83,7.25,13.27,11.25,20.95,11.25,1.93,0,3.5,1.57,3.5,3.5s-1.57,3.5-3.5,3.5Z"/><path class="cls-1" d="M161.86,140.14c-6.98,0-13.8-2.17-19.13-6.22-6.14-4.67-9.78-11.48-10.24-19.17-.12-1.93,1.35-3.59,3.28-3.71,1.93-.15,3.59,1.35,3.71,3.28,.44,7.21,4.32,11.6,7.5,14.02,5.5,4.18,13.12,5.76,20.38,4.22,1.89-.4,3.75,.81,4.15,2.7,.4,1.89-.81,3.75-2.7,4.15-2.3,.49-4.63,.73-6.95,.73Z"/><path class="cls-1" d="M135.67,258.11c-1.93,0-3.5-1.57-3.5-3.5,0-9.38,4.66-25.1,35.9-25.1,1.93,0,3.5,1.57,3.5,3.5s-1.57,3.5-3.5,3.5c-19.18,0-28.9,6.09-28.9,18.1,0,1.93-1.57,3.5-3.5,3.5Z"/><path class="cls-1" d="M92.37,177.1c-1.93,0-3.5-1.57-3.5-3.5,0-11.69,10.05-24.83,21.08-27.59,1.88-.47,3.78,.67,4.24,2.55,.47,1.88-.67,3.78-2.55,4.24-7.96,1.99-15.78,12.29-15.78,20.8,0,1.93-1.57,3.5-3.5,3.5Z"/><path class="cls-1" d="M130.22,295.91c-16.78,0-31.41-9.42-37.99-24.22-20.74,.75-39.19-16.6-41.88-39.9-.51-4.41-.43-8.81,.23-13.12-6.52-7.68-10.22-18.1-10.22-28.88,0-17.63,9.74-33.24,24-38.98-.31-11.2,3.87-22.74,11.46-31.36,6.63-7.53,15.3-12.09,24.63-13.03,5.23-13.9,18.78-22.74,35.23-22.74,20.8,0,35.9,15,35.9,35.67v136.86c0,22.26-18.17,39.7-41.36,39.7Zm-35.7-31.39c1.45,0,2.77,.9,3.28,2.29,4.97,13.43,17.69,22.1,32.42,22.1,19.27,0,34.36-14.36,34.36-32.7V119.36c0-16.61-12.16-28.67-28.9-28.67-14.18,0-25.68,7.88-29.3,20.08-.43,1.45-1.74,2.45-3.25,2.5-8.3,.26-16.13,4.1-22.05,10.82-6.96,7.9-10.54,18.67-9.58,28.81,.16,1.65-.87,3.19-2.46,3.68-12.76,3.91-21.67,17.57-21.67,33.22,0,9.66,3.47,18.93,9.52,25.43,.76,.82,1.08,1.95,.88,3.04-.79,4.16-.94,8.44-.45,12.73,2.23,19.26,16.97,33.72,33.65,33.73,1.05,0,2.11-.06,3.18-.17,.13-.01,.26-.02,.39-.02Z"/><path class="cls-1" d="M94.52,271.52c-1.36,0-2.66-.8-3.22-2.13-7.76-18.26-7.08-35.32,1.92-48.03,7.5-10.6,20.12-17.03,33.57-17.32,0-1.3,0-2.61,0-3.44,0-12.52,9.15-19.7,25.1-19.7,1.93,0,3.5,1.57,3.5,3.5s-1.57,3.5-3.5,3.5c-12.01,0-18.1,4.27-18.1,12.7,0,.89,0,2.31,0,3.69,0,1.31,0,2.57,0,3.32,0,.97-.4,1.89-1.1,2.55-.7,.66-1.64,1-2.62,.94-12.39-.78-24.34,4.7-31.14,14.3-7.54,10.65-7.96,25.3-1.19,41.25,.76,1.78-.07,3.83-1.85,4.59-.45,.19-.91,.28-1.37,.28Z"/><path class="cls-1" d="M101.31,221.03c-.26,0-.53-.03-.8-.09-11.85-2.75-20.78-12.88-20.78-23.56,0-1.93,1.57-3.5,3.5-3.5s3.5,1.57,3.5,3.5c0,7.38,6.75,14.74,15.37,16.74,1.88,.44,3.05,2.32,2.62,4.2-.38,1.62-1.82,2.71-3.41,2.71Z"/></g></g></g></g></svg>