<?xml version="1.0" encoding="UTF-8"?><svg id="Layer_2" xmlns="http://www.w3.org/2000/svg" viewBox="0 0 329.13 380.09"><defs><style>.cls-1{fill:#fff;}.cls-2{fill:#218fb8;}</style></defs><g id="Layer_1-2"><g><polygon class="cls-2" points="329.05 94.71 164.43 0 0 94.88 0 284.84 164.76 380.09 329.13 284.46 329.05 94.71"/><path class="cls-1" d="M256.42,109.24l-19.34,30.13-18.66,4.07-50.1,10.92c-1.61,.35-2.68,1.85-2.49,3.48,3.29,28.42-41.69,43.33-42.14,43.48-.87,.28-1.57,.93-1.95,1.78-.36,.84-.34,1.81,.05,2.64,8.19,17.05,10.14,30.72,5.64,39.56-2.85,5.61-7.68,8.11-10.49,9.13l-16.9-33.68c-.2-.39-.38-.79-.56-1.19-.06-.2-.15-.38-.25-.56-3-6.91-3.66-14.65-1.83-22.01l8.08-32.57c1.78-7.13,5.69-13.4,11.14-17.97l43.23-31.5c.32-.23,.59-.52,.81-.85l30.16-46.97c.95-1.48,.52-3.45-.96-4.41-1.48-.95-3.45-.52-4.41,.96l-29.83,46.46-42.92,31.28c-6.66,5.59-11.3,13.01-13.4,21.46l-8.08,32.57c-2.06,8.27-1.46,16.95,1.64,24.81l-32.55,50.69c-.95,1.48-.52,3.45,.96,4.41,1.48,.95,3.45,.52,4.41-.96l30.4-47.35,16.34,32.58c.63,1.25,2.01,1.95,3.39,1.71,.47-.08,11.6-2.09,17.24-13.04,5.28-10.22,3.93-24.38-4.02-42.13,10.95-4.2,44.12-19.18,43.34-46.18l67.36-14.68s.03,0,.05-.01l5.29-1.15c5.41-1.18,10.77,2.26,11.95,7.67,1.18,5.41-2.26,10.77-7.67,11.95l-25.29,5.51c-.17,.04-.33,.09-.49,.15l-5.08,1.11c-1.72,.38-2.81,2.07-2.44,3.79,.38,1.72,2.07,2.81,3.79,2.44l25.29-5.51c5.41-1.18,10.77,2.27,11.95,7.67,1.18,5.4-2.26,10.77-7.67,11.95l-25.29,5.51c-1.62,.35-2.68,1.87-2.49,3.48,.01,.13,.03,.26,.06,.4,.38,1.72,2.07,2.81,3.79,2.44l25.29-5.51c2.62-.57,5.31-.09,7.57,1.36s3.81,3.69,4.38,6.31c1.14,5.24-2.43,10.81-7.67,11.95l-22.23,4.84c-2.9-1.07-6.05-1.29-9.14-.62-5.79,1.26-10.21,5.46-12.02,10.69-.25-.18-.5-.36-.77-.53-3.69-2.37-8.08-3.16-12.37-2.22-4.9,1.07-8.9,4.5-11.09,8.84-3.82-3.75-9.4-5.57-15.01-4.35-4.97,1.08-9.02,4.61-11.19,9.04-3.81-3.59-9.28-5.31-14.77-4.11-8.58,1.87-14.41,10.98-12.54,19.54l5.8,26.59c.33,1.5,.85,2.91,1.54,4.2l-15.55,24.21c-.95,1.48-.52,3.45,.96,4.41s3.45,.52,4.41-.96l14.46-22.52c3.73,2.96,8.71,4.3,13.72,3.2,4.42-.96,8.04-3.64,10.31-7.17,.37-.57,.69-1.16,.99-1.77,3.81,3.53,9.22,5.2,14.66,4.02,4.29-.93,7.95-3.48,10.32-7.17,.32-.5,.62-1.02,.88-1.55,3.82,3.67,9.34,5.44,14.89,4.23,4.28-.93,7.95-3.48,10.32-7.17,.72-1.12,1.29-2.3,1.71-3.53,3.66,2.65,8.38,3.79,13.13,2.75,4.29-.93,7.95-3.48,10.32-7.17s3.16-8.09,2.22-12.37l-1.75-8.01,1.63-.35c4.42-.96,8.03-3.63,10.3-7.16,2.27-3.53,3.19-7.93,2.23-12.35-.79-3.63-2.75-6.81-5.57-9.14l.55-.12c4.29-.93,7.95-3.48,10.32-7.17,2.37-3.69,3.16-8.09,2.22-12.37-.93-4.28-3.48-7.95-7.17-10.32-.73-.47-1.48-.87-2.26-1.21,.57-.64,1.09-1.32,1.55-2.04,2.27-3.54,3.2-7.94,2.24-12.36-.93-4.28-3.47-7.8-6.83-10.08,1.82-1.25,3.35-2.84,4.52-4.67,2.27-3.54,3.2-7.94,2.24-12.36-1.78-8.15-9.36-13.56-17.46-12.86l16-24.92c.95-1.48,.52-3.45-.96-4.41-1.48-.95-3.45-.52-4.41,.96Zm-98.5,181.62c-5.41,1.18-10.77-2.26-11.95-7.67l-5.8-26.59c-.57-2.62-.09-5.31,1.36-7.56s3.69-3.81,6.31-4.39c5.32-1.16,10.58,2.15,11.88,7.4,.05,.33,.11,.65,.18,.98l5.8,26.59c.01,.06,.03,.12,.04,.18,.65,5.09-2.71,9.95-7.82,11.07Zm25.96-4.93c-5.31,1.16-10.56-2.14-11.87-7.38-.05-.33-.11-.66-.18-1l-5.8-26.59c-.02-.07-.04-.15-.05-.22-.29-2.32,.24-4.65,1.52-6.64,1.45-2.26,3.69-3.82,6.32-4.39,5.41-1.18,10.77,2.26,11.95,7.67l.18,.81c.02,.11,.04,.22,.06,.33l5.59,25.66c1,5.18-2.54,10.61-7.71,11.74Zm26.1-4.49c-5.41,1.18-10.77-2.26-11.95-7.67l-.14-.66c-.03-.16-.06-.32-.09-.49l-5.63-25.81c-.45-2.51,.05-5.05,1.43-7.2s3.69-3.81,6.31-4.38c2.62-.57,5.31-.09,7.56,1.36,1.7,1.09,3,2.63,3.78,4.44l5.7,26.16c.18,.82,.42,1.62,.71,2.38,1.1,5.22-2.46,10.74-7.68,11.88Zm32.83-19.89c1.14,5.24-2.42,10.81-7.67,11.95-4.76,1.04-9.49-1.51-11.36-5.82l-5.7-26.12c-.18-.82-.42-1.62-.71-2.39-.56-2.68,0-5.34,1.38-7.48,1.39-2.16,3.6-3.8,6.31-4.39,2.62-.57,5.31-.09,7.57,1.36,2.26,1.45,3.81,3.69,4.38,6.31l5.8,26.59Zm12.41-27.87c1.18,5.39-2.26,10.74-7.65,11.92l-1.63,.35-2.69-12.35c-.55-2.55-1.69-4.88-3.29-6.85l3.34-.73c5.4-1.18,10.74,2.26,11.92,7.65Z"/></g></g></svg>