<svg xmlns="http://www.w3.org/2000/svg" width="94.022" height="108.581" viewBox="0 0 94.022 108.581"><g transform="translate(47.01 54.285)"><g transform="translate(-41.193 -47.571)"><g transform="translate(0 0)" fill="none" stroke-miterlimit="10"><path d="M82.365,23.707,41.159,0,0,23.748V71.3L41.241,95.142,82.385,71.2Z" stroke="none"/><path d="M 41.15911865234375 -2.288818359375e-05 L 1.52587890625e-05 23.74837493896484 L 1.52587890625e-05 71.29931640625 L 41.24124908447266 95.14202880859375 L 82.38548278808594 71.20376586914062 L 82.36456298828125 23.70747375488281 L 41.15911865234375 -2.288818359375e-05 M 41.15498733520508 -6.714019775390625 L 88.1805419921875 20.34207916259766 L 88.20440673828125 74.54869079589844 L 41.25051116943359 101.8670806884766 L -5.817436218261719 74.65576171875 L -5.817436218261719 20.38861083984375 L 41.15498733520508 -6.714019775390625 Z" stroke="none" fill="#fff"/></g><g transform="translate(0 0)"><path d="M182.728,71.2l-.021-47.5L141.5,0V47.509Z" transform="translate(-100.343)" fill="#cba243"/><path d="M41.147,0,0,23.748V71.3l41.159-23.79Z" fill="#ffea92"/><path d="M41.159,163.332,0,187.123l41.241,23.843,41.144-23.938Z" transform="translate(0 -115.823)" fill="#edbd4e"/></g></g></g></svg>